<svg width="78" height="81" fill="none" xmlns="http://www.w3.org/2000/svg"><path d="M70.72 9.002A7.13 7.13 0 0 0 70.227 9H64.06V3.698c0-2.12-2.024-3.374-4.145-3.374H54.23c-2.12 0-3.663 1.253-3.663 3.374v5.3H27.433v-5.3c0-2.12-1.542-3.374-3.662-3.374h-5.687c-2.12 0-4.145 1.253-4.145 3.374v5.3H7.771a7.133 7.133 0 0 0-7.326 7.423v55.71c0 4.241 3.085 8.193 7.326 8.193h62.458c4.24 0 7.325-3.952 7.325-8.193v-55.71a7.132 7.132 0 0 0-6.835-7.419ZM54.228 4.18h5.976v10.602h-5.976V4.18Zm-36.145 0h5.494v10.602h-5.494V4.18ZM73.698 72.13c0 2.12-1.349 4.338-3.47 4.338H7.772c-2.12 0-3.47-2.217-3.47-4.338V31.168h69.397V72.13Zm0-55.71v10.891H4.301V16.421a3.277 3.277 0 0 1 3.47-3.567h6.168v2.12c0 2.122 2.024 3.664 4.145 3.664h5.687a3.566 3.566 0 0 0 3.662-3.663v-2.12h23.133v2.12a3.566 3.566 0 0 0 3.663 3.662h5.686c2.12 0 4.145-1.542 4.145-3.662v-2.12h6.169a3.277 3.277 0 0 1 3.47 3.566Z" fill="white"/><path d="m28.301 57.481-1.735 9.639a1.929 1.929 0 0 0 2.796 2.024l8.674-4.53 8.675 4.53.867.192a1.83 1.83 0 0 0 1.157-.385c.576-.42.872-1.125.771-1.831l-1.735-9.639 7.036-6.747a2.12 2.12 0 0 0 .482-2.024 2.024 2.024 0 0 0-1.542-1.253l-9.639-1.446-4.337-8.77a1.927 1.927 0 0 0-3.47 0l-4.337 8.77-9.639 1.446a2.024 2.024 0 0 0-1.542 1.253 2.12 2.12 0 0 0 .482 2.024l7.036 6.747Zm5.302-7.807a1.734 1.734 0 0 0 1.349-1.06l3.084-6.169 3.084 6.169c.232.567.745.97 1.35 1.06l6.843.964-4.916 4.723a2.025 2.025 0 0 0-.578 1.735l1.157 6.843-6.072-3.277-.868-.193-.867.193-6.073 3.277 1.157-6.843a2.024 2.024 0 0 0-.579-1.735l-4.915-4.723 6.844-.964Z" fill="white"/></svg>