<svg width="2153" height="2139" viewBox="0 0 2153 2139" fill="none"
    xmlns="http://www.w3.org/2000/svg">
    <g filter="url(#filter0_d_35_2)">
        <path fill-rule="evenodd" clip-rule="evenodd"
            d="M1222.3 1256.78C1232.24 1256.9 1236.9 1250.94 1240.02 1242.92C1242.74 1235.92 1245.59 1228.98 1248.44 1222.03C1251.02 1215.73 1253.61 1209.43 1256.1 1203.1C1260.95 1190.75 1257.5 1178.36 1247.33 1169.94C1238.24 1162.41 1229.3 1154.7 1220.52 1146.8C1218.12 1144.64 1217 1142.33 1219 1139.39C1221.37 1135.92 1222.97 1132.08 1224.51 1128.22C1225.9 1124.75 1228.11 1123.79 1231.61 1125.2C1237.92 1127.74 1244.39 1129.85 1250.86 1131.95C1254.37 1133.1 1257.88 1134.24 1261.36 1135.46C1263.77 1136.29 1265.87 1137.49 1267.5 1139.55C1270.14 1142.87 1272.85 1146.15 1275.57 1149.43C1281.14 1156.16 1286.71 1162.89 1291.64 1170.06C1300.15 1182.44 1325.26 1184.51 1330 1165.53C1330 1160.38 1330 1155.69 1329.78 1150.69C1328.98 1146.35 1327.49 1142.74 1324.89 1139.54C1321.06 1134.82 1317.27 1130.06 1313.48 1125.31C1308.88 1119.52 1304.27 1113.74 1299.59 1108.02C1294.26 1101.51 1287.91 1096.55 1279.32 1094.28C1271.75 1092.28 1264.38 1089.59 1257.01 1086.9C1252.16 1085.14 1247.32 1083.37 1242.42 1081.8C1242.3 1081.76 1242.19 1081.72 1242.08 1081.69C1239.81 1080.97 1237.63 1080.28 1237.96 1076.89C1238.56 1070.52 1238.4 1064.11 1238.24 1057.72C1238.23 1057.11 1238.21 1056.51 1238.2 1055.91C1238.1 1051.56 1239.65 1049.26 1243.89 1047.95C1250.97 1045.77 1257.95 1043.3 1264.93 1040.82C1271.14 1038.63 1277.34 1036.43 1283.62 1034.43C1290.45 1032.26 1296 1028.44 1298.63 1021.58C1300.35 1017.13 1302.88 1013.37 1305.84 1009.72C1311.29 1003 1316.69 996.243 1322.07 989.464C1328.94 980.796 1329.95 970.856 1325.03 962.48C1316.95 948.701 1297.93 947.938 1287.52 961.043C1283.84 965.686 1280.13 970.316 1276.42 974.945C1271.92 980.578 1267.41 986.211 1262.93 991.869C1261.33 993.898 1259.49 995.424 1257.04 996.288C1254.05 997.344 1251.04 998.334 1248.03 999.324C1242.97 1000.99 1237.91 1002.65 1232.97 1004.62C1229.86 1005.86 1227.99 1004.78 1226.83 1001.62C1225.16 997.093 1223.19 992.666 1220.83 988.447C1219.28 985.677 1219.66 983.677 1222.08 981.482C1229.64 974.626 1237.41 968.021 1245.19 961.418C1246.92 959.946 1248.65 958.473 1250.38 956.998C1264.73 944.772 1266.65 939.194 1262.27 923.132C1258.32 908.673 1252.01 894.871 1245.75 881.158C1244.95 879.403 1244.15 877.65 1243.35 875.896C1239 866.32 1228.14 862.051 1218.05 864.638C1207.9 867.239 1201.79 875.519 1201.76 886.391C1201.74 890.69 1203.11 894.562 1204.63 898.444C1207.71 906.355 1210.97 914.195 1214.3 922.008C1215.68 925.269 1215.63 928.097 1212.69 930.529C1208.33 934.142 1204.05 937.848 1199.77 941.554C1198.52 942.637 1197.27 943.721 1196.01 944.802C1193.32 947.125 1190.95 947.229 1188.15 944.678C1178.28 935.705 1167.73 927.6 1156.13 920.951C1153.94 919.696 1153.31 917.941 1153.84 915.479C1155.03 909.946 1156.06 904.321 1156.12 898.691C1156.43 873.042 1147.07 851.489 1127.35 834.987C1117.18 826.473 1105.85 819.887 1091.81 819.751C1091.25 819.746 1090.68 819.763 1090.1 819.781C1088.04 819.842 1085.85 819.908 1083.53 819C1078.38 819 1073.69 819 1068.69 819.221C1067.94 819.262 1067.19 819.301 1066.45 819.34C1059.94 819.676 1053.64 820.002 1047.71 822.197C1032.75 827.729 1020.91 837.38 1011.66 850.329C997.922 869.566 995.282 891.036 999.097 913.69C999.748 917.556 999.17 920.035 995.728 922.011C984.715 928.336 974.441 935.685 965.489 944.753C963.164 947.108 961.155 947.15 958.586 945.018C951.8 939.386 945.129 933.628 938.51 927.802C935.731 925.355 935.283 922.856 936.775 919.398C940.404 910.994 943.995 902.563 947.002 893.907C948.633 889.214 948.788 884.405 947.431 879.657C944.907 870.827 937.157 864.569 928.201 863.896C918.533 863.169 909.382 868.563 905.53 877.955C903.971 881.757 902.389 885.551 900.808 889.345C896.43 899.848 892.052 910.351 888.141 921.032C885.621 927.914 885.408 935.314 889.582 941.759C893.103 947.195 897.762 951.77 902.705 956.065C906.071 958.988 909.466 961.878 912.861 964.767C919.222 970.18 925.583 975.593 931.748 981.233C934.033 983.324 934.226 985.237 932.961 987.828C932.327 989.125 931.656 990.406 930.984 991.687C929.41 994.691 927.836 997.695 926.747 1000.91C925.433 1004.79 923.201 1005.66 919.468 1004.16C912.961 1001.55 906.299 999.375 899.637 997.198C897.114 996.373 894.591 995.549 892.077 994.7C889.632 993.876 887.706 992.52 886.057 990.49C878.186 980.803 870.397 971.051 862.668 961.251C856.151 952.987 846.629 949.709 837.41 952.626C821.718 957.59 817.064 975.903 828.07 989.648C830.411 992.572 832.779 995.476 835.146 998.379C840.774 1005.28 846.402 1012.18 851.67 1019.35C858.051 1028.04 866.05 1033.75 876.524 1036.6C882.619 1038.27 888.558 1040.44 894.499 1042.61C899.514 1044.45 904.532 1046.28 909.646 1047.81C913.475 1048.96 914.994 1050.87 914.856 1054.94C914.836 1055.53 914.815 1056.12 914.794 1056.71C914.589 1062.44 914.383 1068.19 915.256 1073.9C916.109 1079.49 915.594 1080.47 910.103 1082.27C902.717 1084.69 895.383 1087.26 888.05 1089.84C881.708 1092.06 875.365 1094.29 868.988 1096.41C861.334 1098.96 854.268 1102.64 849.24 1109.35C847.67 1111.45 846.002 1113.47 844.335 1115.5C842.296 1117.97 840.258 1120.45 838.399 1123.05C836.49 1125.73 834.34 1128.24 832.182 1130.76C827.198 1136.58 822.175 1142.44 820 1150.47C820 1155.96 820 1160.98 820.215 1166.3C820.653 1167.19 821 1168.07 821.337 1168.93C822.071 1170.8 822.762 1172.56 824.254 1174.05C833.081 1182.81 849.17 1181.46 857.469 1170.94L858.223 1169.99C863.745 1162.99 869.268 1155.99 874.925 1149.11C875.804 1148.04 876.607 1146.88 877.412 1145.71C879.565 1142.57 881.738 1139.41 885.435 1138.03C891.728 1135.66 898.107 1133.55 904.488 1131.43C910.596 1129.4 916.705 1127.37 922.739 1125.12C925.394 1124.14 927.121 1124.98 928.294 1127.65C930.039 1131.61 931.871 1135.57 934.123 1139.25C936.315 1142.84 935.538 1145.32 932.49 1147.83C928.121 1151.44 923.855 1155.17 919.589 1158.9C913.71 1164.04 907.832 1169.18 901.687 1174.01C892.065 1181.56 889.307 1191.47 893.799 1202.84C895.86 1208.06 898.004 1213.24 900.148 1218.43C903.286 1226.02 906.423 1233.6 909.301 1241.29C912.677 1250.31 917.654 1256.65 928.444 1257C931.259 1257 933.629 1257 936.306 1256.78C936.728 1256.7 937.146 1256.62 937.56 1256.55C941.135 1255.91 944.367 1255.32 947.114 1252.69C954.457 1245.64 955.12 1237.26 952.139 1228.34C949.662 1220.93 946.584 1213.71 943.415 1206.55C940.736 1200.5 940.993 1198.84 946.011 1194.98C948.612 1192.98 951.068 1190.82 953.523 1188.66C954.563 1187.75 955.603 1186.83 956.654 1185.93C960.578 1182.56 962.474 1180.88 964.376 1180.87C966.218 1180.87 968.064 1182.43 971.76 1185.56C1007.81 1216.07 1049.55 1228.13 1096.18 1222.94C1130.09 1219.16 1159.8 1205.35 1185.17 1182.46C1187.98 1179.92 1190.26 1179.82 1192.97 1182.19C1193.82 1182.93 1194.67 1183.68 1195.52 1184.43C1199.05 1187.52 1202.58 1190.62 1206.24 1193.53C1209.47 1196.1 1209.93 1198.57 1208.39 1202.17C1208.06 1202.93 1207.73 1203.68 1207.41 1204.44C1204.05 1212.25 1200.68 1220.07 1197.94 1228.11C1194.83 1237.22 1195.58 1245.68 1203.05 1252.88C1205.23 1254.98 1207.81 1255.49 1210.51 1256.03C1211.8 1256.29 1213.13 1256.56 1214.44 1257C1217.26 1257 1219.63 1257 1222.3 1256.78ZM1214.92 1254C1213.89 1253.68 1212.91 1253.46 1212 1253.27C1211.66 1253.2 1211.34 1253.14 1211.03 1253.08C1210.36 1252.94 1209.75 1252.82 1209.13 1252.67C1207.43 1252.26 1206.19 1251.74 1205.13 1250.72C1201.81 1247.52 1200.1 1244.16 1199.48 1240.69C1198.86 1237.17 1199.34 1233.31 1200.78 1229.08C1203.48 1221.15 1206.8 1213.44 1210.17 1205.61C1210.49 1204.86 1210.82 1204.11 1211.14 1203.35C1212.04 1201.26 1212.56 1199.05 1212.02 1196.78C1211.49 1194.49 1210.01 1192.7 1208.11 1191.19C1204.51 1188.32 1201.05 1185.29 1197.53 1182.19C1196.67 1181.44 1195.81 1180.69 1194.94 1179.93C1193.29 1178.49 1191.32 1177.4 1189 1177.49C1186.72 1177.57 1184.8 1178.75 1183.16 1180.23C1158.24 1202.72 1129.11 1216.25 1095.85 1219.96C1050.01 1225.06 1009.09 1213.23 973.698 1183.27L973.552 1183.15C971.793 1181.66 970.289 1180.38 968.987 1179.51C967.63 1178.6 966.059 1177.82 964.192 1177.88C962.359 1177.93 960.819 1178.79 959.484 1179.73C958.248 1180.61 956.808 1181.84 955.12 1183.29C954.981 1183.41 954.841 1183.53 954.699 1183.65C953.589 1184.61 952.516 1185.55 951.458 1186.48C949.039 1188.61 946.702 1190.67 944.183 1192.6C941.722 1194.49 939.507 1196.47 938.894 1199.31C938.302 1202.06 939.387 1204.87 940.672 1207.77C943.835 1214.91 946.864 1222.02 949.294 1229.29C950.679 1233.43 951.144 1237.24 950.543 1240.7C949.949 1244.11 948.283 1247.41 945.037 1250.52L947.114 1252.69L945.037 1250.52C942.975 1252.5 940.66 1252.93 936.943 1253.61C936.609 1253.67 936.264 1253.74 935.907 1253.8C933.449 1254 931.244 1254 928.495 1254C923.758 1253.84 920.537 1252.39 918.116 1250.18C915.606 1247.89 913.726 1244.55 912.11 1240.24C909.226 1232.53 906.043 1224.83 902.882 1217.19C900.74 1212.01 898.61 1206.85 896.589 1201.74C894.534 1196.53 894.217 1191.89 895.343 1187.79C896.47 1183.68 899.126 1179.83 903.539 1176.37C908.907 1172.15 914.062 1167.71 919.142 1163.28C919.954 1162.57 920.763 1161.86 921.571 1161.16C925.838 1157.43 930.067 1153.73 934.4 1150.15C936.146 1148.71 937.694 1146.92 938.203 1144.58C938.727 1142.18 938.009 1139.86 936.682 1137.69C934.542 1134.19 932.777 1130.38 931.04 1126.44C930.306 1124.77 929.174 1123.15 927.331 1122.29C925.44 1121.42 923.458 1121.66 921.694 1122.31L922.739 1125.12L921.694 1122.31C915.71 1124.54 909.645 1126.55 903.522 1128.59L903.134 1128.71C896.897 1130.79 890.601 1132.88 884.381 1135.22C881.089 1136.45 878.852 1138.74 877.117 1140.97C876.336 1141.98 875.61 1143.03 874.945 1144C874.877 1144.1 874.81 1144.2 874.743 1144.29C874.001 1145.37 873.324 1146.34 872.608 1147.21C866.932 1154.11 861.391 1161.13 855.874 1168.12L855.114 1169.08C847.813 1178.34 833.798 1179.3 826.368 1171.92C825.671 1171.22 825.192 1170.39 824.696 1169.24C824.561 1168.93 824.4 1168.52 824.219 1168.06C823.92 1167.3 823.566 1166.41 823.189 1165.58C823.005 1160.67 823 1156 823 1150.88C824.433 1145.86 827.12 1141.7 830.349 1137.63C831.664 1135.97 833.033 1134.37 834.441 1132.73C834.818 1132.29 835.198 1131.85 835.581 1131.4C837.367 1129.3 839.183 1127.12 840.841 1124.79C842.463 1122.52 844.241 1120.33 846.093 1118.08C846.279 1117.86 846.466 1117.63 846.654 1117.4C848.314 1115.39 850.027 1113.31 851.641 1111.15C856.147 1105.14 862.554 1101.72 869.937 1099.26C876.339 1097.12 882.703 1094.89 889.043 1092.67C889.538 1092.49 890.034 1092.32 890.529 1092.15C897.369 1089.75 904.183 1087.37 911.037 1085.12C912.432 1084.67 913.707 1084.2 914.762 1083.64C915.85 1083.05 916.897 1082.26 917.624 1081.06C918.351 1079.86 918.563 1078.58 918.582 1077.36C918.601 1076.18 918.436 1074.86 918.221 1073.45C917.394 1068.03 917.588 1062.56 917.793 1056.79C917.814 1056.21 917.835 1055.63 917.854 1055.04C917.935 1052.65 917.552 1050.38 916.145 1048.49C914.753 1046.62 912.706 1045.6 910.506 1044.94C905.483 1043.44 900.549 1041.63 895.517 1039.79C895.059 1039.62 894.6 1039.46 894.14 1039.29C888.665 1037.29 883.069 1035.28 877.313 1033.71C867.525 1031.04 860.089 1025.75 854.088 1017.58C848.773 1010.34 843.068 1003.35 837.419 996.419C835.063 993.529 832.716 990.651 830.411 987.773C825.455 981.582 824.133 974.523 825.636 968.58C827.133 962.663 831.467 957.652 838.315 955.486C846.202 952.991 854.472 955.702 860.313 963.108C868.049 972.918 875.847 982.682 883.728 992.382C885.724 994.839 888.12 996.532 891.118 997.543C893.693 998.411 896.252 999.248 898.794 1000.08C905.422 1002.24 911.942 1004.38 918.35 1006.95C920.49 1007.81 922.923 1008.3 925.209 1007.31C927.534 1006.3 928.818 1004.15 929.589 1001.87C930.6 998.887 932.002 996.213 933.522 993.314C934.218 991.988 934.938 990.616 935.656 989.144C936.426 987.568 936.964 985.78 936.646 983.854C936.323 981.9 935.209 980.334 933.773 979.02C927.572 973.346 921.134 967.867 914.744 962.43C911.359 959.549 907.988 956.68 904.673 953.8C899.802 949.568 895.392 945.211 892.1 940.128C888.593 934.712 888.65 928.366 890.958 922.063C894.844 911.45 899.185 901.036 903.555 890.553C905.141 886.747 906.732 882.931 908.306 879.094C911.656 870.925 919.582 866.257 927.976 866.888C935.676 867.466 942.366 872.856 944.546 880.481C945.731 884.625 945.6 888.802 944.169 892.922C941.202 901.463 937.651 909.801 934.021 918.209C933.138 920.256 932.664 922.393 933.099 924.568C933.54 926.772 934.82 928.55 936.528 930.054C943.161 935.892 949.855 941.671 956.671 947.327C958.201 948.597 960.054 949.641 962.233 949.566C964.437 949.49 966.206 948.297 967.624 946.86C976.339 938.033 986.378 930.84 997.222 924.613C999.373 923.378 1000.97 921.777 1001.77 919.589C1002.52 917.511 1002.41 915.307 1002.06 913.191C998.335 891.1 1000.94 870.498 1014.1 852.072C1023.04 839.559 1034.42 830.312 1048.75 825.01C1054.23 822.984 1060.06 822.679 1066.63 822.335C1067.36 822.297 1068.1 822.258 1068.84 822.217C1073.59 822.008 1078.06 822 1083.01 822C1085.78 822.94 1088.55 822.846 1090.49 822.779C1090.98 822.763 1091.41 822.748 1091.79 822.751C1104.82 822.878 1115.48 828.968 1125.43 837.288C1144.42 853.182 1153.42 873.86 1153.12 898.655C1153.06 903.969 1152.09 909.35 1150.91 914.848C1150.57 916.44 1150.52 918.149 1151.18 919.789C1151.86 921.465 1153.11 922.681 1154.64 923.554C1166.01 930.07 1176.38 938.033 1186.13 946.898L1188.15 944.678L1186.13 946.898C1187.83 948.443 1189.81 949.563 1192.11 949.568C1194.41 949.572 1196.35 948.472 1197.97 947.074C1199.23 945.984 1200.49 944.895 1201.75 943.808C1206.03 940.106 1210.28 936.429 1214.61 932.839C1216.54 931.234 1217.75 929.288 1218.08 927.012C1218.4 924.834 1217.86 922.725 1217.06 920.834C1213.74 913.034 1210.49 905.225 1207.42 897.354C1205.91 893.476 1204.74 890.076 1204.76 886.401C1204.79 876.789 1210.07 869.78 1218.8 867.544C1227.69 865.264 1236.96 869.077 1240.62 877.136C1241.42 878.896 1242.22 880.652 1243.02 882.405C1249.3 896.146 1255.5 909.715 1259.38 923.922C1261.54 931.869 1261.92 936.503 1260.52 940.512C1259.08 944.609 1255.6 948.607 1248.44 954.715C1246.71 956.183 1244.99 957.651 1243.26 959.121C1235.48 965.725 1227.66 972.368 1220.06 979.259C1218.61 980.579 1217.38 982.179 1217.01 984.213C1216.64 986.273 1217.25 988.191 1218.21 989.912C1220.48 993.972 1222.39 998.252 1224.01 1002.66C1224.7 1004.54 1225.82 1006.43 1227.81 1007.44C1229.87 1008.5 1232.09 1008.2 1234.08 1007.41C1238.96 1005.46 1243.84 1003.86 1248.81 1002.22C1251.84 1001.23 1254.91 1000.22 1258.04 999.116C1261.15 998.018 1263.42 996.08 1265.28 993.73L1262.93 991.869L1265.28 993.73C1269.77 988.065 1274.26 982.455 1278.75 976.837C1282.46 972.211 1286.16 967.58 1289.87 962.909C1299.11 951.279 1315.54 952.225 1322.45 963.999C1326.65 971.154 1325.93 979.756 1319.71 987.6C1314.34 994.373 1308.95 1001.12 1303.51 1007.83C1300.45 1011.61 1297.7 1015.64 1295.83 1020.5C1293.63 1026.23 1289.01 1029.57 1282.71 1031.57C1276.39 1033.59 1270.14 1035.8 1263.94 1037.99L1262.77 1038.41C1256.17 1040.74 1249.62 1043.04 1243.01 1045.09C1240.54 1045.85 1238.4 1047.04 1236.97 1049.06C1235.54 1051.08 1235.14 1053.47 1235.2 1055.98C1235.21 1056.58 1235.23 1057.17 1235.24 1057.77C1235.4 1064.19 1235.56 1070.42 1234.97 1076.61C1234.85 1077.83 1234.95 1079.02 1235.37 1080.12C1235.8 1081.24 1236.5 1082.1 1237.29 1082.73C1238.55 1083.73 1240.18 1084.24 1241.18 1084.55C1241.29 1084.59 1241.4 1084.62 1241.5 1084.65C1246.34 1086.21 1251.12 1087.95 1255.95 1089.71C1257.22 1090.17 1258.5 1090.64 1259.78 1091.1C1265.91 1093.32 1272.14 1095.49 1278.55 1097.18C1286.38 1099.25 1292.22 1103.76 1297.26 1109.92C1301.96 1115.66 1306.53 1121.39 1311.11 1127.14C1314.89 1131.89 1318.68 1136.65 1322.57 1141.43C1324.74 1144.12 1326.06 1147.18 1326.79 1151.04C1326.99 1155.76 1327 1160.21 1327 1165.15C1324.93 1172.84 1318.91 1176.29 1312.12 1176.56C1305.02 1176.83 1297.69 1173.56 1294.11 1168.36C1289.11 1161.08 1283.39 1154.17 1277.76 1147.38C1275.07 1144.13 1272.4 1140.9 1269.85 1137.68C1267.75 1135.04 1265.1 1133.58 1262.35 1132.62C1258.74 1131.37 1255.17 1130.2 1251.64 1129.05C1245.25 1126.97 1238.96 1124.92 1232.73 1122.42C1230.62 1121.57 1228.29 1121.18 1226.09 1122.12C1223.89 1123.06 1222.57 1125.01 1221.73 1127.11C1220.18 1130.97 1218.68 1134.53 1216.52 1137.7C1215.13 1139.74 1214.61 1141.95 1215.21 1144.17C1215.76 1146.21 1217.15 1147.81 1218.51 1149.03C1227.32 1156.95 1236.3 1164.7 1245.42 1172.25C1254.63 1179.88 1257.67 1190.9 1253.31 1202C1250.82 1208.32 1248.25 1214.6 1245.66 1220.9L1245.27 1221.86C1242.55 1228.48 1239.83 1235.13 1237.22 1241.83C1235.74 1245.65 1234.01 1248.64 1231.73 1250.66C1229.54 1252.6 1226.63 1253.83 1222.34 1253.78L1222.2 1253.78L1222.05 1253.79C1219.67 1253.99 1217.53 1254 1214.92 1254Z"
            fill="#6399F0" />
    </g>
    <g filter="url(#filter1_dddd_35_2)">
        <path fill-rule="evenodd" clip-rule="evenodd"
            d="M1002.56 964.179C994.078 971.416 986.326 978.672 979.705 986.994C964.568 1006.02 956.133 1027.84 954.153 1051.86C952.109 1076.68 957.017 1100.22 969.418 1122.11C980.677 1141.98 995.991 1157.72 1015.7 1168.93C1039.38 1182.4 1064.78 1187.53 1091.99 1184.13C1105.87 1182.4 1118.99 1178.42 1131.4 1172.28C1147.94 1164.1 1161.9 1152.49 1173.32 1137.91C1182.91 1125.69 1189.74 1112.08 1194.41 1097.08C1198.53 1083.83 1199.14 1070.37 1199.04 1056.36C1198.92 1040.76 1194.95 1026.06 1188.48 1011.83C1180.68 994.681 1169.82 979.897 1155.25 967.982C1148.55 962.505 1141.73 957.523 1134.14 953.815C1133.74 953.618 1133.47 953.503 1133.26 953.436C1133.23 953.428 1133.21 953.42 1133.19 953.414C1133.14 953.461 1133.07 953.531 1132.99 953.631C1132.11 954.667 1131.07 955.449 1130.24 956.048C1130.05 956.19 1129.86 956.322 1129.69 956.446C1129.06 956.897 1128.57 957.246 1128.11 957.655C1116.47 968.047 1102.57 974.227 1087.33 975.752C1062.66 978.219 1039.66 972.689 1021.31 953.992C1020.97 953.647 1020.73 953.467 1020.57 953.375C1020.44 953.294 1020.38 953.285 1020.36 953.283L1020.36 953.283L1020.36 953.283C1020.34 953.279 1020.04 953.237 1019.13 953.69C1016.36 955.069 1013.74 956.768 1010.99 958.629C1010.51 958.958 1010.02 959.292 1009.52 959.631C1007.32 961.134 1005.01 962.714 1002.56 964.179ZM1007.81 957.171C1005.54 958.718 1003.25 960.283 1000.81 961.732C992.193 969.071 984.206 976.519 977.357 985.126C961.841 1004.63 953.191 1027.01 951.164 1051.62C949.071 1077.01 954.1 1101.16 966.808 1123.59C978.319 1143.9 994.012 1160.04 1014.22 1171.54C1038.46 1185.33 1064.5 1190.58 1092.36 1187.11C1106.58 1185.33 1120.02 1181.26 1132.73 1174.97C1149.7 1166.58 1164 1154.67 1175.68 1139.77C1185.51 1127.22 1192.51 1113.28 1197.27 1097.97C1201.53 1084.27 1202.14 1070.42 1202.04 1056.34C1201.92 1040.23 1197.82 1025.11 1191.21 1010.59C1183.24 993.063 1172.11 977.895 1157.15 965.66C1150.38 960.126 1143.36 954.976 1135.46 951.119C1133.69 950.255 1132.27 949.835 1130.7 951.692C1129.95 952.575 1128.98 953.264 1128.01 953.956C1127.36 954.422 1126.7 954.889 1126.11 955.417C1114.94 965.396 1101.63 971.307 1087.03 972.767C1063.03 975.167 1041.02 969.789 1023.45 951.89C1021.6 950.005 1020.08 949.865 1017.79 951.004C1014.29 952.746 1011.08 954.938 1007.81 957.171Z"
            fill="#6399F0" />
    </g>
    <g filter="url(#filter2_dddd_35_2)">
        <path fill-rule="evenodd" clip-rule="evenodd"
            d="M1039.64 866.257C1031.51 878.166 1027.27 890.151 1029.72 904.117C1029.92 905.234 1030.13 905.888 1030.31 906.253C1030.34 906.321 1030.37 906.373 1030.4 906.411C1030.44 906.412 1030.51 906.411 1030.6 906.406C1031 906.379 1031.6 906.258 1032.52 905.981C1047.35 901.529 1062.46 899.905 1077.79 899.886C1093.28 899.868 1108.23 902.459 1122.92 906.323C1122.97 906.337 1123.02 906.35 1123.07 906.362C1123.08 906.305 1123.1 906.246 1123.11 906.183C1125.21 896.103 1124.19 886.358 1120.09 877.054C1113.38 861.797 1097.31 849.664 1079.41 848.911C1063.37 848.235 1050.6 854.302 1039.64 866.257ZM1030.28 906.4C1030.28 906.399 1030.28 906.4 1030.29 906.401C1030.28 906.4 1030.28 906.4 1030.28 906.4ZM1030.46 906.497C1030.46 906.502 1030.46 906.504 1030.46 906.505C1030.46 906.505 1030.46 906.502 1030.46 906.497ZM1079.54 845.914C1062.42 845.193 1048.79 851.765 1037.28 864.389C1028.8 876.751 1024.12 889.575 1026.77 904.636C1027.64 909.616 1029.41 910.047 1033.38 908.854C1047.87 904.507 1062.67 902.904 1077.8 902.886C1092.95 902.868 1107.63 905.403 1122.15 909.224C1124.97 909.965 1125.52 909.318 1126.05 906.795C1128.27 896.108 1127.19 885.726 1122.84 875.845C1115.7 859.621 1098.66 846.719 1079.54 845.914Z"
            fill="#6399F0" />
    </g>
    <g filter="url(#filter3_ddd_35_2)">
        <path fill-rule="evenodd" clip-rule="evenodd"
            d="M1084.35 943.051L1084.46 943.034C1087.61 942.571 1090.52 941.772 1093.42 940.633C1082.27 939.011 1071.49 938.867 1060.81 940.735C1068.27 943.702 1075.87 944.958 1084.24 943.075L1084.35 943.051ZM1055.71 941.784C1054.35 941.14 1053 940.453 1051.65 939.732C1053.12 939.323 1054.59 938.954 1056.06 938.624C1069.95 935.51 1083.87 935.821 1098.33 938.388C1099.86 938.66 1101.39 938.956 1102.93 939.277C1101.53 940.091 1100.15 940.839 1098.79 941.52C1094.29 943.759 1089.87 945.269 1084.9 946.002C1074.21 948.405 1064.77 946.06 1055.71 941.784Z"
            fill="#6399F0" />
    </g>
    <g filter="url(#filter4_dddddd_35_2)">
        <path fill-rule="evenodd" clip-rule="evenodd"
            d="M994.996 1053.41C994.998 1059.24 995 1065.1 995 1071C995 1075.78 994.997 1080.53 994.994 1085.23C994.986 1096.6 994.979 1107.79 995.017 1118.98C995.038 1125.27 999.18 1131.31 1004.94 1133.56C1008.39 1134.91 1011.49 1135.25 1014.37 1134.74C1017.25 1134.23 1020.11 1132.83 1023.02 1130.37L1024.76 1132.43L1023.02 1130.37C1027.95 1126.2 1028.9 1120.63 1028.94 1113.86C1029.08 1084.88 1029.03 1055.89 1028.97 1026.9C1028.97 1026.44 1028.97 1025.98 1028.97 1025.53C1028.96 1020.17 1028.96 1015.11 1028.18 1010C1027.45 1005.26 1025.41 1001.74 1022.38 999.424C1019.34 997.094 1015 995.766 1009.3 996.001C1001.98 996.303 995.024 1003.61 995.01 1011.52C994.987 1025.42 994.991 1039.33 994.996 1053.41ZM991.996 1053.42C991.998 1059.24 992 1065.1 992 1071C992 1075.78 991.997 1080.52 991.994 1085.23C991.986 1096.6 991.979 1107.79 992.017 1118.99C992.042 1126.5 996.932 1133.65 1003.85 1136.35C1011.6 1139.38 1018.5 1138.13 1024.96 1132.66C1030.95 1127.59 1031.9 1120.84 1031.94 1113.87C1032.08 1084.88 1032.03 1055.88 1031.97 1026.89C1031.97 1026.42 1031.97 1025.95 1031.97 1025.49C1031.97 1020.18 1031.96 1014.89 1031.14 1009.55C1029.49 998.768 1021.62 992.49 1009.18 993.003C1000.16 993.376 992.026 1002.09 992.01 1011.51C991.987 1025.42 991.991 1039.33 991.996 1053.42Z"
            fill="#6399F0" />
    </g>
    <g filter="url(#filter5_dddddd_35_2)">
        <path fill-rule="evenodd" clip-rule="evenodd"
            d="M1125 1039.74C1125 1043.79 1125 1047.87 1125 1052C1125 1057.67 1125 1063.31 1125.01 1068.93C1125.02 1085.4 1125.03 1101.69 1124.94 1117.96C1124.92 1121.18 1125.72 1123.95 1127.29 1126.86C1130.84 1133.42 1138.98 1135.98 1144.74 1134.77C1152.81 1133.08 1157.99 1126.6 1157.99 1119.28C1158.01 1083.14 1158 1047.01 1157.99 1010.87C1157.99 1010.42 1157.99 1010.02 1158 1009.67C1158.01 1008.56 1158.02 1007.92 1157.83 1007.29C1155.46 999.532 1147.07 994.541 1137.96 996.015L1137.48 993.054C1147.88 991.371 1157.83 997.042 1160.7 1006.41C1161.04 1007.53 1161.02 1008.77 1161 1009.99C1160.99 1010.29 1160.99 1010.58 1160.99 1010.87C1161 1047.01 1161.01 1083.14 1160.99 1119.28C1160.99 1128.1 1154.73 1135.74 1145.36 1137.71C1138.54 1139.14 1128.94 1136.21 1124.65 1128.29C1122.88 1125.01 1121.91 1121.74 1121.94 1117.94C1122.03 1101.68 1122.02 1085.41 1122.01 1068.94C1122 1063.32 1122 1057.68 1122 1052C1122 1047.88 1122 1043.8 1122 1039.75C1122 1030.4 1121.99 1021.21 1122 1012.03L1125 1012.04C1124.99 1021.22 1125 1030.39 1125 1039.74ZM1122 1012.03L1125 1012.04C1125.01 1004.21 1130.93 997.153 1137.96 996.015L1137.48 993.054C1128.89 994.444 1122.02 1002.85 1122 1012.03Z"
            fill="#6399F0" />
    </g>
    <g filter="url(#filter6_dddddd_35_2)">
        <path fill-rule="evenodd" clip-rule="evenodd"
            d="M1060.78 1136.92L1060.83 1137.02C1060.96 1137.26 1061.06 1137.43 1061.16 1137.58C1061.17 1137.59 1061.18 1137.61 1061.19 1137.63C1061.27 1137.77 1061.43 1138.02 1061.57 1138.29C1065.28 1145.71 1073.21 1149.58 1079.69 1147.83C1087.71 1145.66 1093.38 1139.26 1093.14 1131.28C1092.64 1115.11 1092.57 1098.88 1093.16 1082.68C1093.3 1078.79 1091.44 1074.83 1088.33 1071.76C1085.22 1068.68 1081.18 1066.81 1077.47 1066.75C1067 1066.6 1059.79 1074.68 1059.92 1082.84C1060.12 1094.65 1060.08 1106.47 1060.03 1118.26C1060.02 1122.95 1060 1127.63 1060 1132.3C1060 1132.47 1059.99 1132.63 1059.99 1132.78C1059.99 1134.69 1059.99 1135.66 1060.72 1136.83L1060.78 1136.92ZM1058.88 1139.63C1058.82 1139.5 1058.74 1139.38 1058.65 1139.23C1058.53 1139.03 1058.38 1138.79 1058.19 1138.43C1056.96 1136.49 1056.98 1134.66 1056.99 1132.86C1056.99 1132.67 1057 1132.49 1057 1132.3C1057 1127.61 1057.02 1122.91 1057.03 1118.22C1057.08 1106.44 1057.12 1094.67 1056.92 1082.9C1056.76 1072.95 1065.43 1063.58 1077.52 1063.75C1086.77 1063.89 1096.52 1072.95 1096.16 1082.79C1095.57 1098.91 1095.64 1115.07 1096.13 1131.19C1096.43 1140.85 1089.53 1148.27 1080.47 1150.72C1072.35 1152.92 1063.1 1148.07 1058.88 1139.63Z"
            fill="#6399F0" />
    </g>
    <defs>
        <filter id="filter0_d_35_2" x="805.493" y="804.493" width="539.013" height="467.013"
            filterUnits="userSpaceOnUse" color-interpolation-filters="sRGB">
            <feFlood flood-opacity="0" result="BackgroundImageFix" />
            <feColorMatrix in="SourceAlpha" type="matrix"
                values="0 0 0 0 0 0 0 0 0 0 0 0 0 0 0 0 0 0 127 0" result="hardAlpha" />
            <feOffset />
            <feGaussianBlur stdDeviation="7.25334" />
            <feColorMatrix type="matrix"
                values="0 0 0 0 0.388235 0 0 0 0 0.6 0 0 0 0 0.941176 0 0 0 1 0" />
            <feBlend mode="normal" in2="BackgroundImageFix" result="effect1_dropShadow_35_2" />
            <feBlend mode="normal" in="SourceGraphic" in2="effect1_dropShadow_35_2" result="shape" />
        </filter>
        <filter id="filter1_dddd_35_2" x="0.623718" y="0.199646" width="2151.51" height="2138.03"
            filterUnits="userSpaceOnUse" color-interpolation-filters="sRGB">
            <feFlood flood-opacity="0" result="BackgroundImageFix" />
            <feColorMatrix in="SourceAlpha" type="matrix"
                values="0 0 0 0 0 0 0 0 0 0 0 0 0 0 0 0 0 0 127 0" result="hardAlpha" />
            <feOffset />
            <feGaussianBlur stdDeviation="11.3105" />
            <feColorMatrix type="matrix"
                values="0 0 0 0 0.388235 0 0 0 0 0.6 0 0 0 0 0.941176 0 0 0 1 0" />
            <feBlend mode="normal" in2="BackgroundImageFix" result="effect1_dropShadow_35_2" />
            <feColorMatrix in="SourceAlpha" type="matrix"
                values="0 0 0 0 0 0 0 0 0 0 0 0 0 0 0 0 0 0 127 0" result="hardAlpha" />
            <feOffset />
            <feGaussianBlur stdDeviation="22.621" />
            <feColorMatrix type="matrix"
                values="0 0 0 0 0.388235 0 0 0 0 0.6 0 0 0 0 0.941176 0 0 0 1 0" />
            <feBlend mode="normal" in2="effect1_dropShadow_35_2" result="effect2_dropShadow_35_2" />
            <feColorMatrix in="SourceAlpha" type="matrix"
                values="0 0 0 0 0 0 0 0 0 0 0 0 0 0 0 0 0 0 127 0" result="hardAlpha" />
            <feOffset />
            <feGaussianBlur stdDeviation="271.452" />
            <feColorMatrix type="matrix"
                values="0 0 0 0 0.388235 0 0 0 0 0.6 0 0 0 0 0.941176 0 0 0 1 0" />
            <feBlend mode="normal" in2="effect2_dropShadow_35_2" result="effect3_dropShadow_35_2" />
            <feColorMatrix in="SourceAlpha" type="matrix"
                values="0 0 0 0 0 0 0 0 0 0 0 0 0 0 0 0 0 0 127 0" result="hardAlpha" />
            <feOffset />
            <feGaussianBlur stdDeviation="475.04" />
            <feColorMatrix type="matrix"
                values="0 0 0 0 0.388235 0 0 0 0 0.6 0 0 0 0 0.941176 0 0 0 1 0" />
            <feBlend mode="normal" in2="effect3_dropShadow_35_2" result="effect4_dropShadow_35_2" />
            <feBlend mode="normal" in="SourceGraphic" in2="effect4_dropShadow_35_2" result="shape" />
        </filter>
        <filter id="filter2_dddd_35_2" x="643.718" y="463.547" width="865.767" height="828.277"
            filterUnits="userSpaceOnUse" color-interpolation-filters="sRGB">
            <feFlood flood-opacity="0" result="BackgroundImageFix" />
            <feColorMatrix in="SourceAlpha" type="matrix"
                values="0 0 0 0 0 0 0 0 0 0 0 0 0 0 0 0 0 0 127 0" result="hardAlpha" />
            <feOffset />
            <feGaussianBlur stdDeviation="4.55134" />
            <feColorMatrix type="matrix"
                values="0 0 0 0 0.388235 0 0 0 0 0.6 0 0 0 0 0.941176 0 0 0 1 0" />
            <feBlend mode="normal" in2="BackgroundImageFix" result="effect1_dropShadow_35_2" />
            <feColorMatrix in="SourceAlpha" type="matrix"
                values="0 0 0 0 0 0 0 0 0 0 0 0 0 0 0 0 0 0 127 0" result="hardAlpha" />
            <feOffset />
            <feGaussianBlur stdDeviation="9.10268" />
            <feColorMatrix type="matrix"
                values="0 0 0 0 0.388235 0 0 0 0 0.6 0 0 0 0 0.941176 0 0 0 1 0" />
            <feBlend mode="normal" in2="effect1_dropShadow_35_2" result="effect2_dropShadow_35_2" />
            <feColorMatrix in="SourceAlpha" type="matrix"
                values="0 0 0 0 0 0 0 0 0 0 0 0 0 0 0 0 0 0 127 0" result="hardAlpha" />
            <feOffset />
            <feGaussianBlur stdDeviation="31.8594" />
            <feColorMatrix type="matrix"
                values="0 0 0 0 0.388235 0 0 0 0 0.6 0 0 0 0 0.941176 0 0 0 1 0" />
            <feBlend mode="normal" in2="effect2_dropShadow_35_2" result="effect3_dropShadow_35_2" />
            <feColorMatrix in="SourceAlpha" type="matrix"
                values="0 0 0 0 0 0 0 0 0 0 0 0 0 0 0 0 0 0 127 0" result="hardAlpha" />
            <feOffset />
            <feGaussianBlur stdDeviation="191.156" />
            <feColorMatrix type="matrix"
                values="0 0 0 0 0.388235 0 0 0 0 0.6 0 0 0 0 0.941176 0 0 0 1 0" />
            <feBlend mode="normal" in2="effect3_dropShadow_35_2" result="effect4_dropShadow_35_2" />
            <feBlend mode="normal" in="SourceGraphic" in2="effect4_dropShadow_35_2" result="shape" />
        </filter>
        <filter id="filter3_ddd_35_2" x="857.794" y="742.521" width="438.993" height="398.299"
            filterUnits="userSpaceOnUse" color-interpolation-filters="sRGB">
            <feFlood flood-opacity="0" result="BackgroundImageFix" />
            <feColorMatrix in="SourceAlpha" type="matrix"
                values="0 0 0 0 0 0 0 0 0 0 0 0 0 0 0 0 0 0 127 0" result="hardAlpha" />
            <feOffset />
            <feGaussianBlur stdDeviation="2.30779" />
            <feColorMatrix type="matrix"
                values="0 0 0 0 0.388235 0 0 0 0 0.6 0 0 0 0 0.941176 0 0 0 1 0" />
            <feBlend mode="normal" in2="BackgroundImageFix" result="effect1_dropShadow_35_2" />
            <feColorMatrix in="SourceAlpha" type="matrix"
                values="0 0 0 0 0 0 0 0 0 0 0 0 0 0 0 0 0 0 127 0" result="hardAlpha" />
            <feOffset />
            <feGaussianBlur stdDeviation="4.61558" />
            <feColorMatrix type="matrix"
                values="0 0 0 0 0.388235 0 0 0 0 0.6 0 0 0 0 0.941176 0 0 0 1 0" />
            <feBlend mode="normal" in2="effect1_dropShadow_35_2" result="effect2_dropShadow_35_2" />
            <feColorMatrix in="SourceAlpha" type="matrix"
                values="0 0 0 0 0 0 0 0 0 0 0 0 0 0 0 0 0 0 127 0" result="hardAlpha" />
            <feOffset />
            <feGaussianBlur stdDeviation="96.9272" />
            <feColorMatrix type="matrix"
                values="0 0 0 0 0.388235 0 0 0 0 0.6 0 0 0 0 0.941176 0 0 0 1 0" />
            <feBlend mode="normal" in2="effect2_dropShadow_35_2" result="effect3_dropShadow_35_2" />
            <feBlend mode="normal" in="SourceGraphic" in2="effect3_dropShadow_35_2" result="shape" />
        </filter>
        <filter id="filter4_dddddd_35_2" x="443.926" y="444.913" width="1136.17" height="1241.11"
            filterUnits="userSpaceOnUse" color-interpolation-filters="sRGB">
            <feFlood flood-opacity="0" result="BackgroundImageFix" />
            <feColorMatrix in="SourceAlpha" type="matrix"
                values="0 0 0 0 0 0 0 0 0 0 0 0 0 0 0 0 0 0 127 0" result="hardAlpha" />
            <feOffset />
            <feGaussianBlur stdDeviation="6.52454" />
            <feColorMatrix type="matrix"
                values="0 0 0 0 0.4 0 0 0 0 0.611765 0 0 0 0 0.941176 0 0 0 1 0" />
            <feBlend mode="normal" in2="BackgroundImageFix" result="effect1_dropShadow_35_2" />
            <feColorMatrix in="SourceAlpha" type="matrix"
                values="0 0 0 0 0 0 0 0 0 0 0 0 0 0 0 0 0 0 127 0" result="hardAlpha" />
            <feOffset />
            <feGaussianBlur stdDeviation="13.0491" />
            <feColorMatrix type="matrix"
                values="0 0 0 0 0.4 0 0 0 0 0.611765 0 0 0 0 0.941176 0 0 0 1 0" />
            <feBlend mode="normal" in2="effect1_dropShadow_35_2" result="effect2_dropShadow_35_2" />
            <feColorMatrix in="SourceAlpha" type="matrix"
                values="0 0 0 0 0 0 0 0 0 0 0 0 0 0 0 0 0 0 127 0" result="hardAlpha" />
            <feOffset />
            <feGaussianBlur stdDeviation="45.6718" />
            <feColorMatrix type="matrix"
                values="0 0 0 0 0.4 0 0 0 0 0.611765 0 0 0 0 0.941176 0 0 0 1 0" />
            <feBlend mode="normal" in2="effect2_dropShadow_35_2" result="effect3_dropShadow_35_2" />
            <feColorMatrix in="SourceAlpha" type="matrix"
                values="0 0 0 0 0 0 0 0 0 0 0 0 0 0 0 0 0 0 127 0" result="hardAlpha" />
            <feOffset />
            <feGaussianBlur stdDeviation="91.3436" />
            <feColorMatrix type="matrix"
                values="0 0 0 0 0.4 0 0 0 0 0.611765 0 0 0 0 0.941176 0 0 0 1 0" />
            <feBlend mode="normal" in2="effect3_dropShadow_35_2" result="effect4_dropShadow_35_2" />
            <feColorMatrix in="SourceAlpha" type="matrix"
                values="0 0 0 0 0 0 0 0 0 0 0 0 0 0 0 0 0 0 127 0" result="hardAlpha" />
            <feOffset />
            <feGaussianBlur stdDeviation="156.589" />
            <feColorMatrix type="matrix"
                values="0 0 0 0 0.4 0 0 0 0 0.611765 0 0 0 0 0.941176 0 0 0 1 0" />
            <feBlend mode="normal" in2="effect4_dropShadow_35_2" result="effect5_dropShadow_35_2" />
            <feColorMatrix in="SourceAlpha" type="matrix"
                values="0 0 0 0 0 0 0 0 0 0 0 0 0 0 0 0 0 0 127 0" result="hardAlpha" />
            <feOffset />
            <feGaussianBlur stdDeviation="274.031" />
            <feColorMatrix type="matrix"
                values="0 0 0 0 0.4 0 0 0 0 0.611765 0 0 0 0 0.941176 0 0 0 1 0" />
            <feBlend mode="normal" in2="effect5_dropShadow_35_2" result="effect6_dropShadow_35_2" />
            <feBlend mode="normal" in="SourceGraphic" in2="effect6_dropShadow_35_2" result="shape" />
        </filter>
        <filter id="filter5_dddddd_35_2" x="572.701" y="443.524" width="1137.54" height="1243.77"
            filterUnits="userSpaceOnUse" color-interpolation-filters="sRGB">
            <feFlood flood-opacity="0" result="BackgroundImageFix" />
            <feColorMatrix in="SourceAlpha" type="matrix"
                values="0 0 0 0 0 0 0 0 0 0 0 0 0 0 0 0 0 0 127 0" result="hardAlpha" />
            <feOffset />
            <feGaussianBlur stdDeviation="6.53852" />
            <feColorMatrix type="matrix"
                values="0 0 0 0 0.341176 0 0 0 0 0.52549 0 0 0 0 0.823529 0 0 0 1 0" />
            <feBlend mode="normal" in2="BackgroundImageFix" result="effect1_dropShadow_35_2" />
            <feColorMatrix in="SourceAlpha" type="matrix"
                values="0 0 0 0 0 0 0 0 0 0 0 0 0 0 0 0 0 0 127 0" result="hardAlpha" />
            <feOffset />
            <feGaussianBlur stdDeviation="13.077" />
            <feColorMatrix type="matrix"
                values="0 0 0 0 0.341176 0 0 0 0 0.52549 0 0 0 0 0.823529 0 0 0 1 0" />
            <feBlend mode="normal" in2="effect1_dropShadow_35_2" result="effect2_dropShadow_35_2" />
            <feColorMatrix in="SourceAlpha" type="matrix"
                values="0 0 0 0 0 0 0 0 0 0 0 0 0 0 0 0 0 0 127 0" result="hardAlpha" />
            <feOffset />
            <feGaussianBlur stdDeviation="45.7696" />
            <feColorMatrix type="matrix"
                values="0 0 0 0 0.341176 0 0 0 0 0.52549 0 0 0 0 0.823529 0 0 0 1 0" />
            <feBlend mode="normal" in2="effect2_dropShadow_35_2" result="effect3_dropShadow_35_2" />
            <feColorMatrix in="SourceAlpha" type="matrix"
                values="0 0 0 0 0 0 0 0 0 0 0 0 0 0 0 0 0 0 127 0" result="hardAlpha" />
            <feOffset />
            <feGaussianBlur stdDeviation="91.5392" />
            <feColorMatrix type="matrix"
                values="0 0 0 0 0.341176 0 0 0 0 0.52549 0 0 0 0 0.823529 0 0 0 1 0" />
            <feBlend mode="normal" in2="effect3_dropShadow_35_2" result="effect4_dropShadow_35_2" />
            <feColorMatrix in="SourceAlpha" type="matrix"
                values="0 0 0 0 0 0 0 0 0 0 0 0 0 0 0 0 0 0 127 0" result="hardAlpha" />
            <feOffset />
            <feGaussianBlur stdDeviation="156.924" />
            <feColorMatrix type="matrix"
                values="0 0 0 0 0.341176 0 0 0 0 0.52549 0 0 0 0 0.823529 0 0 0 1 0" />
            <feBlend mode="normal" in2="effect4_dropShadow_35_2" result="effect5_dropShadow_35_2" />
            <feColorMatrix in="SourceAlpha" type="matrix"
                values="0 0 0 0 0 0 0 0 0 0 0 0 0 0 0 0 0 0 127 0" result="hardAlpha" />
            <feOffset />
            <feGaussianBlur stdDeviation="274.618" />
            <feColorMatrix type="matrix"
                values="0 0 0 0 0.341176 0 0 0 0 0.52549 0 0 0 0 0.823529 0 0 0 1 0" />
            <feBlend mode="normal" in2="effect5_dropShadow_35_2" result="effect6_dropShadow_35_2" />
            <feBlend mode="normal" in="SourceGraphic" in2="effect6_dropShadow_35_2" result="shape" />
        </filter>
        <filter id="filter6_dddddd_35_2" x="726.17" y="732.998" width="700.751" height="749.004"
            filterUnits="userSpaceOnUse" color-interpolation-filters="sRGB">
            <feFlood flood-opacity="0" result="BackgroundImageFix" />
            <feColorMatrix in="SourceAlpha" type="matrix"
                values="0 0 0 0 0 0 0 0 0 0 0 0 0 0 0 0 0 0 127 0" result="hardAlpha" />
            <feOffset />
            <feGaussianBlur stdDeviation="3.93752" />
            <feColorMatrix type="matrix"
                values="0 0 0 0 0.396078 0 0 0 0 0.607843 0 0 0 0 0.941176 0 0 0 1 0" />
            <feBlend mode="normal" in2="BackgroundImageFix" result="effect1_dropShadow_35_2" />
            <feColorMatrix in="SourceAlpha" type="matrix"
                values="0 0 0 0 0 0 0 0 0 0 0 0 0 0 0 0 0 0 127 0" result="hardAlpha" />
            <feOffset />
            <feGaussianBlur stdDeviation="7.87504" />
            <feColorMatrix type="matrix"
                values="0 0 0 0 0.396078 0 0 0 0 0.607843 0 0 0 0 0.941176 0 0 0 1 0" />
            <feBlend mode="normal" in2="effect1_dropShadow_35_2" result="effect2_dropShadow_35_2" />
            <feColorMatrix in="SourceAlpha" type="matrix"
                values="0 0 0 0 0 0 0 0 0 0 0 0 0 0 0 0 0 0 127 0" result="hardAlpha" />
            <feOffset />
            <feGaussianBlur stdDeviation="27.5626" />
            <feColorMatrix type="matrix"
                values="0 0 0 0 0.396078 0 0 0 0 0.607843 0 0 0 0 0.941176 0 0 0 1 0" />
            <feBlend mode="normal" in2="effect2_dropShadow_35_2" result="effect3_dropShadow_35_2" />
            <feColorMatrix in="SourceAlpha" type="matrix"
                values="0 0 0 0 0 0 0 0 0 0 0 0 0 0 0 0 0 0 127 0" result="hardAlpha" />
            <feOffset />
            <feGaussianBlur stdDeviation="55.1253" />
            <feColorMatrix type="matrix"
                values="0 0 0 0 0.396078 0 0 0 0 0.607843 0 0 0 0 0.941176 0 0 0 1 0" />
            <feBlend mode="normal" in2="effect3_dropShadow_35_2" result="effect4_dropShadow_35_2" />
            <feColorMatrix in="SourceAlpha" type="matrix"
                values="0 0 0 0 0 0 0 0 0 0 0 0 0 0 0 0 0 0 127 0" result="hardAlpha" />
            <feOffset />
            <feGaussianBlur stdDeviation="94.5005" />
            <feColorMatrix type="matrix"
                values="0 0 0 0 0.396078 0 0 0 0 0.607843 0 0 0 0 0.941176 0 0 0 1 0" />
            <feBlend mode="normal" in2="effect4_dropShadow_35_2" result="effect5_dropShadow_35_2" />
            <feColorMatrix in="SourceAlpha" type="matrix"
                values="0 0 0 0 0 0 0 0 0 0 0 0 0 0 0 0 0 0 127 0" result="hardAlpha" />
            <feOffset />
            <feGaussianBlur stdDeviation="165.376" />
            <feColorMatrix type="matrix"
                values="0 0 0 0 0.396078 0 0 0 0 0.607843 0 0 0 0 0.941176 0 0 0 1 0" />
            <feBlend mode="normal" in2="effect5_dropShadow_35_2" result="effect6_dropShadow_35_2" />
            <feBlend mode="normal" in="SourceGraphic" in2="effect6_dropShadow_35_2" result="shape" />
        </filter>
    </defs>
</svg>
    