<svg width="554" height="482" viewBox="0 0 554 482" fill="none" xmlns="http://www.w3.org/2000/svg">
    <g filter="url(#filter0_f_0_1)">
        <path
            d="M22.2151 369.302C22 363.978 22 358.956 22 353.467C25.1168 341.966 34.081 334.902 40.3993 326.051C43.7763 321.32 47.7478 317.015 51.2403 312.354C56.2681 305.644 63.3342 301.964 70.9884 299.412C84.7386 294.828 98.3288 289.785 112.103 285.273C117.594 283.474 118.109 282.489 117.256 276.903C116.293 270.603 116.643 264.253 116.856 257.943C116.994 253.868 115.475 251.959 111.646 250.814C100.474 247.472 89.765 242.669 78.5236 239.603C68.0501 236.746 60.0514 231.043 53.6704 222.355C46.1858 212.164 37.9748 202.521 30.0696 192.648C19.0641 178.903 23.7175 160.59 39.4098 155.626C48.6292 152.709 58.1515 155.987 64.6683 164.251C72.3973 174.051 80.186 183.803 88.0568 193.49C89.7063 195.52 91.6322 196.876 94.0768 197.7C103.231 200.788 112.497 203.562 121.468 207.164C125.201 208.663 127.433 207.79 128.747 203.91C130.3 199.324 132.842 195.167 134.961 190.828C136.226 188.237 136.033 186.324 133.748 184.233C124.292 175.582 114.375 167.466 104.705 159.065C99.7623 154.77 95.103 150.195 91.5821 144.759C87.4077 138.314 87.6208 130.914 90.1407 124.032C95.4642 109.494 101.654 95.2823 107.53 80.9554C111.382 71.5631 120.533 66.1694 130.201 66.8961C139.157 67.5692 146.907 73.8269 149.431 82.6566C150.788 87.4053 150.633 92.2138 149.002 96.9067C145.995 105.563 142.404 113.994 138.775 122.398C137.283 125.856 137.731 128.355 140.51 130.802C147.129 136.628 153.8 142.386 160.586 148.018C163.155 150.15 165.164 150.108 167.489 147.753C176.441 138.685 186.715 131.336 197.728 125.011C201.17 123.035 201.748 120.556 201.097 116.69C197.282 94.0356 199.922 72.5664 213.66 53.329C222.907 40.3802 234.754 30.7287 249.711 25.1966C256.326 22.7501 263.395 22.626 270.694 22.2206C275.689 22 280.379 22 285.534 22C288.506 23.1654 291.274 22.7267 293.814 22.7514C307.85 22.8875 319.175 29.4727 329.351 37.987C349.072 54.4887 358.433 76.0422 358.125 101.691C358.057 107.321 357.03 112.946 355.84 118.479C355.311 120.941 355.938 122.696 358.128 123.951C369.732 130.6 380.276 138.705 390.145 147.678C392.951 150.229 395.317 150.125 398.011 147.802C403.554 143.023 409.059 138.199 414.694 133.529C417.628 131.097 417.682 128.269 416.295 125.008C412.972 117.195 409.712 109.355 406.627 101.444C405.114 97.5623 403.741 93.6895 403.756 89.3908C403.793 78.5187 409.904 70.2389 420.051 67.6382C430.145 65.0513 441.004 69.3201 445.35 78.8964C452.362 94.3492 459.817 109.822 464.269 126.132C468.654 142.194 466.727 147.772 452.382 159.998C442.891 168.088 433.324 176.098 424.08 184.482C421.659 186.677 421.281 188.677 422.831 191.447C425.191 195.666 427.161 200.093 428.826 204.624C429.986 207.779 431.861 208.862 434.967 207.622C442.863 204.469 451.035 202.117 459.043 199.288C461.489 198.424 463.325 196.898 464.931 194.869C473.086 184.561 481.348 174.337 489.523 164.043C499.93 150.938 518.946 151.701 527.035 165.48C531.951 173.856 530.936 183.796 524.065 192.464C518.691 199.243 513.287 206.002 507.84 212.722C504.881 216.372 502.345 220.127 500.634 224.579C497.996 231.439 492.449 235.258 485.618 237.433C472.286 241.679 459.256 246.822 445.891 250.954C441.655 252.263 440.095 254.563 440.199 258.912C440.367 265.9 440.621 272.918 439.957 279.891C439.618 283.446 442.033 284.03 444.416 284.795C456.788 288.765 468.771 293.965 481.319 297.282C489.914 299.554 496.255 304.509 501.585 311.019C510.121 321.445 518.403 332.079 526.895 342.542C529.488 345.738 530.981 349.351 531.781 353.693C532 358.689 532 363.379 532 368.534C527.255 387.507 502.151 385.444 493.642 373.061C486.315 362.4 477.559 352.712 469.495 342.546C467.867 340.493 465.772 339.293 463.363 338.455C453.455 335.008 443.353 332.119 433.611 328.202C430.11 326.795 427.9 327.748 426.514 331.219C424.972 335.081 423.365 338.919 421.001 342.392C419.004 345.327 420.116 347.644 422.516 349.801C431.297 357.697 440.243 365.413 449.33 372.941C459.5 381.364 462.951 393.747 458.099 406.098C452.863 419.423 447.21 432.579 442.018 445.92C438.898 453.937 434.236 459.902 424.301 459.78C421.629 460 419.259 460 416.444 460C412.365 458.625 408.264 458.978 405.052 455.882C397.583 448.681 396.832 440.221 399.938 431.111C402.946 422.29 406.705 413.736 410.385 405.17C411.934 401.566 411.469 399.101 408.239 396.534C403.692 392.92 399.352 389.017 394.967 385.187C392.26 382.823 389.984 382.918 387.165 385.462C361.8 408.348 332.092 422.164 298.179 425.94C251.555 431.132 209.806 419.072 173.76 388.56C166.246 382.2 166.377 382.299 158.654 388.93C155.125 391.96 151.714 395.136 148.011 397.981C142.993 401.835 142.736 403.502 145.415 409.555C148.584 416.714 151.662 423.932 154.139 431.343C157.12 440.257 156.457 448.638 149.114 455.687C146.049 458.629 142.382 459.014 138.306 459.78C135.629 460 133.259 460 130.444 460C119.654 459.648 114.677 453.309 111.301 444.29C106.458 431.353 100.878 418.693 95.7989 405.839C91.3073 394.47 94.0651 384.556 103.687 377.007C114.292 368.685 124.102 359.416 134.49 350.834C137.538 348.316 138.315 345.842 136.123 342.255C133.871 338.569 132.039 334.608 130.294 330.646C129.121 327.983 127.394 327.138 124.739 328.125C112.402 332.712 99.7519 336.402 87.4355 341.026C82.3539 342.934 80.1517 348.189 76.9252 352.113C71.0108 359.307 65.2421 366.63 59.469 373.944C51.1695 384.458 35.0807 385.811 26.2542 377.045C24.076 374.882 23.6055 372.128 22.2151 369.302Z"
            stroke="#6399F0" stroke-width="4" />
    </g>
    <g filter="url(#filter1_f_0_1)">
        <path
            d="M322 256C322 242.344 321.988 229.189 322.005 216.033C322.016 206.85 328.889 198.444 337.48 197.054C347.876 195.371 357.832 201.042 360.7 210.411C361.124 211.798 360.989 213.379 360.989 214.87C361.003 251.007 361.01 287.143 360.993 323.279C360.989 332.1 354.729 339.739 345.356 341.709C338.536 343.143 328.943 340.212 324.651 332.287C322.875 329.007 321.914 325.744 321.937 321.945C322.067 300.13 322 278.315 322 256Z"
            fill="#6399F0" />
        <path
            d="M322.5 256C322.5 251.875 322.499 247.795 322.498 243.748C322.496 234.396 322.493 225.215 322.505 216.034C322.516 207.077 329.229 198.896 337.56 197.548C347.742 195.9 357.436 201.457 360.222 210.558C360.538 211.592 360.519 212.733 360.499 213.945C360.494 214.249 360.489 214.558 360.489 214.871C360.503 251.007 360.51 287.143 360.493 323.279C360.489 331.849 354.409 339.295 345.253 341.22C338.611 342.616 329.259 339.746 325.091 332.049C323.348 328.831 322.415 325.65 322.437 321.948C322.534 305.68 322.521 289.411 322.509 272.937C322.505 267.318 322.5 261.675 322.5 256Z"
            stroke="#6399F0" />
    </g>
    <g filter="url(#filter2_f_0_1)">
        <path
            d="M258.185 342.43C256.837 340.29 256.994 338.287 256.995 336.301C257.004 319.832 257.204 303.36 256.924 286.895C256.755 276.952 265.43 267.578 277.516 267.752C286.774 267.885 296.52 276.946 296.16 286.792C295.57 302.907 295.644 319.07 296.134 335.191C296.428 344.845 289.53 352.272 280.472 354.722C272.346 356.92 263.099 352.067 258.885 343.631C258.738 343.338 258.529 343.076 258.185 342.43Z"
            fill="#6399F0" />
        <path
            d="M258.626 342.195L258.618 342.179L258.608 342.164C257.468 340.353 257.48 338.67 257.493 336.858C257.494 336.674 257.495 336.488 257.495 336.301C257.498 331.61 257.516 326.916 257.534 322.222C257.579 310.446 257.624 298.663 257.424 286.887C257.26 277.239 265.692 268.082 277.509 268.252C281.984 268.316 286.617 270.544 290.093 273.985C293.568 277.424 295.834 282.023 295.66 286.774C295.07 302.902 295.144 319.076 295.634 335.206C295.919 344.581 289.226 351.836 280.342 354.239C272.49 356.363 263.462 351.675 259.332 343.407C259.256 343.256 259.166 343.111 259.073 342.961C259.06 342.941 259.047 342.92 259.034 342.899C258.923 342.721 258.791 342.505 258.626 342.195Z"
            stroke="#6399EF" />
    </g>
    <g filter="url(#filter3_f_0_1)">
        <path
            d="M228.708 106.43C226.192 92.0992 230.575 79.8348 238.822 67.7742C249.965 55.5956 263.022 49.361 279.425 50.0518C297.726 50.8225 314.118 63.2113 320.979 78.7908C325.161 88.2871 326.2 98.2443 324.057 108.527C323.942 109.08 323.847 109.426 323.762 109.648C323.539 109.633 323.185 109.575 322.633 109.43C308.003 105.58 293.139 103.008 277.763 103.026C262.497 103.044 247.492 104.662 232.778 109.079C231.831 109.363 231.145 109.509 230.631 109.543C230.136 109.576 229.935 109.496 229.853 109.451C229.688 109.359 229.141 108.894 228.708 106.43Z"
            stroke="#6399F0" stroke-width="4" />
    </g>
    <g filter="url(#filter4_f_0_1)">
        <path
            d="M192 274C192 253.837 191.977 234.175 192.011 214.512C192.027 205.087 200.16 196.376 209.179 196.003C221.618 195.49 229.492 201.768 231.143 212.549C232.033 218.363 231.96 224.109 231.972 229.89C232.033 258.884 232.085 287.879 231.939 316.872C231.904 323.844 230.949 330.592 224.957 335.664C218.501 341.128 211.6 342.384 203.85 339.353C196.933 336.647 192.043 329.502 192.017 321.99C191.964 306.16 192.001 290.33 192 274Z"
            fill="#6399F0" />
        <path
            d="M192.5 274C192.5 268.1 192.498 262.244 192.496 256.418C192.492 242.331 192.487 228.422 192.511 214.513C192.526 205.34 200.464 196.864 209.2 196.503C215.332 196.25 220.287 197.672 223.903 200.438C227.514 203.201 229.839 207.342 230.648 212.625C231.461 217.928 231.465 223.178 231.47 228.493C231.471 228.958 231.471 229.424 231.472 229.891C231.533 258.885 231.585 287.878 231.439 316.87C231.404 323.809 230.45 330.36 224.634 335.283C221.459 337.969 218.199 339.602 214.802 340.202C211.406 340.802 207.836 340.375 204.032 338.887L203.85 339.353L204.032 338.887C197.307 336.257 192.542 329.297 192.517 321.989C192.48 310.794 192.487 299.599 192.494 288.227C192.497 283.519 192.5 278.781 192.5 274Z"
            stroke="#6399F0" />
    </g>
    <g filter="url(#filter5_f_0_1)">
        <path
            d="M284.254 147.627C271.956 150.391 261.309 146.871 251 141.356C267.827 136.686 284.614 137.228 302.284 140.902C296.267 144.394 290.737 146.671 284.254 147.627Z"
            fill="#659AEF" />
    </g>
    <defs>
        <filter id="filter0_f_0_1" x="0" y="0" width="554" height="482" filterUnits="userSpaceOnUse"
            color-interpolation-filters="sRGB">
            <feFlood flood-opacity="0" result="BackgroundImageFix" />
            <feBlend mode="normal" in="SourceGraphic" in2="BackgroundImageFix" result="shape" />
            <feGaussianBlur stdDeviation="10" result="effect1_foregroundBlur_0_1" />
        </filter>
        <filter id="filter1_f_0_1" x="306.937" y="181.76" width="69.0732" height="175.3"
            filterUnits="userSpaceOnUse" color-interpolation-filters="sRGB">
            <feFlood flood-opacity="0" result="BackgroundImageFix" />
            <feBlend mode="normal" in="SourceGraphic" in2="BackgroundImageFix" result="shape" />
            <feGaussianBlur stdDeviation="7.5" result="effect1_foregroundBlur_0_1" />
        </filter>
        <filter id="filter2_f_0_1" x="241.922" y="252.75" width="69.2476" height="117.5"
            filterUnits="userSpaceOnUse" color-interpolation-filters="sRGB">
            <feFlood flood-opacity="0" result="BackgroundImageFix" />
            <feBlend mode="normal" in="SourceGraphic" in2="BackgroundImageFix" result="shape" />
            <feGaussianBlur stdDeviation="7.5" result="effect1_foregroundBlur_0_1" />
        </filter>
        <filter id="filter3_f_0_1" x="206" y="28" width="141.141" height="103.652"
            filterUnits="userSpaceOnUse" color-interpolation-filters="sRGB">
            <feFlood flood-opacity="0" result="BackgroundImageFix" />
            <feBlend mode="normal" in="SourceGraphic" in2="BackgroundImageFix" result="shape" />
            <feGaussianBlur stdDeviation="10" result="effect1_foregroundBlur_0_1" />
        </filter>
        <filter id="filter4_f_0_1" x="176.988" y="180.974" width="70.0449" height="174.99"
            filterUnits="userSpaceOnUse" color-interpolation-filters="sRGB">
            <feFlood flood-opacity="0" result="BackgroundImageFix" />
            <feBlend mode="normal" in="SourceGraphic" in2="BackgroundImageFix" result="shape" />
            <feGaussianBlur stdDeviation="7.5" result="effect1_foregroundBlur_0_1" />
        </filter>
        <filter id="filter5_f_0_1" x="231" y="118" width="91.2842" height="50.5906"
            filterUnits="userSpaceOnUse" color-interpolation-filters="sRGB">
            <feFlood flood-opacity="0" result="BackgroundImageFix" />
            <feBlend mode="normal" in="SourceGraphic" in2="BackgroundImageFix" result="shape" />
            <feGaussianBlur stdDeviation="10" result="effect1_foregroundBlur_0_1" />
        </filter>
    </defs>
</svg>
    