<svg width="564" height="492" viewBox="0 0 564 492" fill="none" xmlns="http://www.w3.org/2000/svg">
    <g filter="url(#filter0_f_0_1)">
        <path
            d="M27.2151 374.302C27 368.978 27 363.956 27 358.467C30.1168 346.966 39.081 339.902 45.3993 331.051C48.7763 326.32 52.7478 322.015 56.2403 317.354C61.2681 310.644 68.3342 306.964 75.9884 304.412C89.7386 299.828 103.329 294.785 117.103 290.273C122.594 288.474 123.109 287.489 122.256 281.903C121.293 275.603 121.643 269.253 121.856 262.943C121.994 258.868 120.475 256.959 116.646 255.814C105.474 252.472 94.765 247.669 83.5236 244.603C73.0501 241.746 65.0514 236.043 58.6704 227.355C51.1858 217.164 42.9748 207.521 35.0696 197.648C24.0641 183.903 28.7175 165.59 44.4098 160.626C53.6292 157.709 63.1515 160.987 69.6683 169.251C77.3973 179.051 85.186 188.803 93.0568 198.49C94.7063 200.52 96.6322 201.876 99.0768 202.7C108.231 205.788 117.497 208.562 126.468 212.164C130.201 213.663 132.433 212.79 133.747 208.91C135.3 204.324 137.842 200.167 139.961 195.828C141.226 193.237 141.033 191.324 138.748 189.233C129.292 180.582 119.375 172.466 109.705 164.065C104.762 159.77 100.103 155.195 96.5821 149.759C92.4077 143.314 92.6208 135.914 95.1407 129.032C100.464 114.494 106.654 100.282 112.53 85.9554C116.382 76.5631 125.533 71.1694 135.201 71.8961C144.157 72.5692 151.907 78.8269 154.431 87.6566C155.788 92.4053 155.633 97.2138 154.002 101.907C150.995 110.563 147.404 118.994 143.775 127.398C142.283 130.856 142.731 133.355 145.51 135.802C152.129 141.628 158.8 147.386 165.586 153.018C168.155 155.15 170.164 155.108 172.489 152.753C181.441 143.685 191.715 136.336 202.728 130.011C206.17 128.035 206.748 125.556 206.097 121.69C202.282 99.0356 204.922 77.5664 218.66 58.329C227.907 45.3802 239.754 35.7287 254.711 30.1966C261.326 27.7501 268.395 27.626 275.694 27.2206C280.689 27 285.379 27 290.534 27C293.506 28.1654 296.274 27.7267 298.814 27.7514C312.85 27.8875 324.175 34.4727 334.351 42.987C354.072 59.4887 363.433 81.0422 363.125 106.691C363.057 112.321 362.03 117.946 360.84 123.479C360.311 125.941 360.938 127.696 363.128 128.951C374.732 135.6 385.276 143.705 395.145 152.678C397.951 155.229 400.317 155.125 403.011 152.802C408.554 148.023 414.059 143.199 419.694 138.529C422.628 136.097 422.682 133.269 421.295 130.008C417.972 122.195 414.712 114.355 411.627 106.444C410.114 102.562 408.741 98.6895 408.756 94.3908C408.793 83.5187 414.904 75.2389 425.051 72.6382C435.145 70.0513 446.004 74.3201 450.35 83.8964C457.362 99.3492 464.817 114.822 469.269 131.132C473.654 147.194 471.727 152.772 457.382 164.998C447.891 173.088 438.324 181.098 429.08 189.482C426.659 191.677 426.281 193.677 427.831 196.447C430.191 200.666 432.161 205.093 433.826 209.624C434.986 212.779 436.861 213.862 439.967 212.622C447.863 209.469 456.035 207.117 464.043 204.288C466.489 203.424 468.325 201.898 469.931 199.869C478.086 189.561 486.348 179.337 494.523 169.043C504.93 155.938 523.946 156.701 532.035 170.48C536.951 178.856 535.936 188.796 529.065 197.464C523.691 204.243 518.287 211.002 512.84 217.722C509.881 221.372 507.345 225.127 505.634 229.579C502.996 236.439 497.449 240.258 490.618 242.433C477.286 246.679 464.256 251.822 450.891 255.954C446.655 257.263 445.095 259.563 445.199 263.912C445.367 270.9 445.621 277.918 444.957 284.891C444.618 288.446 447.033 289.03 449.416 289.795C461.788 293.765 473.771 298.965 486.319 302.282C494.914 304.554 501.255 309.509 506.585 316.019C515.121 326.445 523.403 337.079 531.895 347.542C534.488 350.738 535.981 354.351 536.781 358.693C537 363.689 537 368.379 537 373.534C532.255 392.507 507.151 390.444 498.642 378.061C491.315 367.4 482.559 357.712 474.495 347.546C472.867 345.493 470.772 344.293 468.363 343.455C458.455 340.008 448.353 337.119 438.611 333.202C435.11 331.795 432.9 332.748 431.514 336.219C429.972 340.081 428.365 343.919 426.001 347.392C424.004 350.327 425.116 352.644 427.516 354.801C436.297 362.697 445.243 370.413 454.33 377.941C464.5 386.364 467.951 398.747 463.099 411.098C457.863 424.423 452.21 437.579 447.018 450.92C443.898 458.937 439.236 464.902 429.301 464.78C426.629 465 424.259 465 421.444 465C417.365 463.625 413.264 463.978 410.052 460.882C402.583 453.681 401.832 445.221 404.938 436.111C407.946 427.29 411.705 418.736 415.385 410.17C416.934 406.566 416.469 404.101 413.239 401.534C408.692 397.92 404.352 394.017 399.967 390.187C397.26 387.823 394.984 387.918 392.165 390.462C366.8 413.348 337.092 427.164 303.179 430.94C256.555 436.132 214.806 424.072 178.76 393.56C171.246 387.2 171.377 387.299 163.654 393.93C160.125 396.96 156.714 400.136 153.011 402.981C147.993 406.835 147.736 408.502 150.415 414.555C153.584 421.714 156.662 428.932 159.139 436.343C162.12 445.257 161.457 453.638 154.114 460.687C151.049 463.629 147.382 464.014 143.306 464.78C140.629 465 138.259 465 135.444 465C124.654 464.648 119.677 458.309 116.301 449.29C111.458 436.353 105.878 423.693 100.799 410.839C96.3073 399.47 99.0651 389.556 108.687 382.007C119.292 373.685 129.102 364.416 139.49 355.834C142.538 353.316 143.315 350.842 141.123 347.255C138.871 343.569 137.039 339.608 135.294 335.646C134.121 332.983 132.394 332.138 129.739 333.125C117.402 337.712 104.752 341.402 92.4355 346.026C87.3539 347.934 85.1517 353.189 81.9252 357.113C76.0108 364.307 70.2421 371.63 64.469 378.944C56.1695 389.458 40.0807 390.811 31.2542 382.045C29.076 379.882 28.6055 377.128 27.2151 374.302Z"
            stroke="#00DBFF" stroke-width="4" />
    </g>
    <g filter="url(#filter1_f_0_1)">
        <path
            d="M327 261C327 247.344 326.988 234.189 327.004 221.033C327.016 211.85 333.889 203.444 342.48 202.054C352.876 200.371 362.832 206.042 365.7 215.411C366.124 216.798 365.989 218.379 365.989 219.87C366.003 256.007 366.01 292.143 365.993 328.279C365.989 337.1 359.729 344.739 350.355 346.709C343.536 348.143 333.942 345.212 329.651 337.287C327.875 334.007 326.914 330.744 326.937 326.945C327.067 305.13 327 283.315 327 261Z"
            fill="#00DBFF" />
    </g>
    <g filter="url(#filter2_f_0_1)">
        <path
            d="M263.185 347.43C261.837 345.29 261.994 343.287 261.995 341.301C262.004 324.832 262.204 308.36 261.924 291.895C261.755 281.952 270.43 272.578 282.516 272.752C291.774 272.885 301.52 281.946 301.16 291.792C300.569 307.907 300.643 324.07 301.134 340.191C301.427 349.845 294.53 357.272 285.472 359.722C277.346 361.92 268.099 357.067 263.884 348.631C263.738 348.338 263.529 348.077 263.185 347.43Z"
            fill="#00DBFF" />
    </g>
    <path
        d="M242.251 65.5287C253.759 52.905 267.393 46.3328 284.509 47.0536C303.628 47.8587 320.665 60.761 327.81 76.9847C332.161 86.866 333.242 97.2479 331.015 107.935C330.49 110.458 329.94 111.105 327.124 110.364C312.601 106.543 297.916 104.008 282.765 104.026C267.638 104.044 252.835 105.647 238.353 109.994C234.378 111.187 232.613 110.755 231.738 105.776C229.094 90.7147 233.772 77.8909 242.251 65.5287Z"
        fill="#E4E9F1" />
    <g filter="url(#filter3_f_0_1)">
        <path
            d="M197 279C197 258.837 196.977 239.175 197.011 219.512C197.027 210.087 205.16 201.376 214.179 201.003C226.618 200.49 234.492 206.768 236.142 217.549C237.033 223.363 236.96 229.109 236.972 234.89C237.033 263.884 237.084 292.879 236.939 321.872C236.904 328.844 235.949 335.592 229.956 340.664C223.501 346.128 216.6 347.384 208.85 344.353C201.932 341.647 197.042 334.502 197.017 326.99C196.964 311.16 197 295.33 197 279Z"
            fill="#00DBFF" />
    </g>
    <g filter="url(#filter4_f_0_1)">
        <path
            d="M242.251 65.5287C253.759 52.905 267.393 46.3328 284.509 47.0536C303.628 47.8587 320.665 60.761 327.81 76.9847C332.161 86.866 333.242 97.2479 331.015 107.935C330.49 110.458 329.94 111.105 327.124 110.364C312.601 106.543 297.916 104.008 282.765 104.026C267.638 104.044 252.835 105.647 238.353 109.994C234.378 111.187 232.613 110.755 231.738 105.776C229.094 90.7147 233.772 77.8909 242.251 65.5287Z"
            fill="#01DCFF" />
    </g>
    <defs>
        <filter id="filter0_f_0_1" x="0" y="0" width="564" height="492" filterUnits="userSpaceOnUse"
            color-interpolation-filters="sRGB">
            <feFlood flood-opacity="0" result="BackgroundImageFix" />
            <feBlend mode="normal" in="SourceGraphic" in2="BackgroundImageFix" result="shape" />
            <feGaussianBlur stdDeviation="12.5" result="effect1_foregroundBlur_0_1" />
        </filter>
        <filter id="filter1_f_0_1" x="311.936" y="186.759" width="69.073" height="175.3"
            filterUnits="userSpaceOnUse" color-interpolation-filters="sRGB">
            <feFlood flood-opacity="0" result="BackgroundImageFix" />
            <feBlend mode="normal" in="SourceGraphic" in2="BackgroundImageFix" result="shape" />
            <feGaussianBlur stdDeviation="7.5" result="effect1_foregroundBlur_0_1" />
        </filter>
        <filter id="filter2_f_0_1" x="246.922" y="257.75" width="69.2476" height="117.5"
            filterUnits="userSpaceOnUse" color-interpolation-filters="sRGB">
            <feFlood flood-opacity="0" result="BackgroundImageFix" />
            <feBlend mode="normal" in="SourceGraphic" in2="BackgroundImageFix" result="shape" />
            <feGaussianBlur stdDeviation="7.5" result="effect1_foregroundBlur_0_1" />
        </filter>
        <filter id="filter3_f_0_1" x="181.988" y="185.974" width="70.0449" height="174.99"
            filterUnits="userSpaceOnUse" color-interpolation-filters="sRGB">
            <feFlood flood-opacity="0" result="BackgroundImageFix" />
            <feBlend mode="normal" in="SourceGraphic" in2="BackgroundImageFix" result="shape" />
            <feGaussianBlur stdDeviation="7.5" result="effect1_foregroundBlur_0_1" />
        </filter>
        <filter id="filter4_f_0_1" x="216" y="32" width="131.141" height="93.6517"
            filterUnits="userSpaceOnUse" color-interpolation-filters="sRGB">
            <feFlood flood-opacity="0" result="BackgroundImageFix" />
            <feBlend mode="normal" in="SourceGraphic" in2="BackgroundImageFix" result="shape" />
            <feGaussianBlur stdDeviation="7.5" result="effect1_foregroundBlur_0_1" />
        </filter>
    </defs>
</svg>
    