<svg width="80" height="81" fill="none" xmlns="http://www.w3.org/2000/svg"><path d="M78.667 71.36V40.325a1.304 1.304 0 0 0-.154-.591h.014l-3.264-6.527a3.978 3.978 0 0 0-3.578-2.216h-9.018v-1.333c0-.354-.14-.693-.391-.943l-7.219-7.218a3.946 3.946 0 0 0-1.724-1v-8.992L56 10.788v3.239a4.087 4.087 0 0 0 1.823 3.406 1.334 1.334 0 1 0 1.48-2.219 1.424 1.424 0 0 1-.636-1.188V9.954a2.667 2.667 0 0 0-.64-4.884L40.685.414a2.654 2.654 0 0 0-1.37 0L21.973 5.07a2.681 2.681 0 0 0 0 5.173l4.694 1.26v8.82h-.084a3.99 3.99 0 0 0-3.067 1.44l-5.867 7.04c-.202.24-.314.541-.316.854v1.333H8.315a3.977 3.977 0 0 0-3.578 2.21l-3.264 6.527h.014c-.098.184-.15.389-.154.597V71.36A2.657 2.657 0 0 0 0 73.657v2.667a2.667 2.667 0 0 0 2.667 2.666H20.37a2.657 2.657 0 0 0 2.296 1.334h34.666a2.657 2.657 0 0 0 2.296-1.334h17.704A2.667 2.667 0 0 0 80 76.324v-2.667a2.657 2.657 0 0 0-1.333-2.296Zm-20-.37h-1.334V41.657H76V70.99H58.667ZM44 70.99h-8V56.324h8V70.99Zm1.333-17.333H34.667c-.737 0-1.334.597-1.334 1.333v16h-8V41.657h29.334V70.99h-8v-16c0-.736-.597-1.333-1.334-1.333ZM60 30.99v2.667H20V30.99h40Zm-2.667 5.334v2.666H22.667v-2.666h34.666Zm14.352-2.667c.506-.002.968.284 1.192.737l2.299 4.596H60v-2.666a2.667 2.667 0 0 0 2.667-2.667h9.018ZM40 2.99l17.352 4.667h-.017l-17.328 4.666-17.34-4.677L40 2.99Zm-10.667 9.23 9.982 2.68c.449.12.921.12 1.37 0l9.982-2.68v8.103H29.333V12.22ZM25.56 23.47c.253-.304.628-.48 1.024-.48h25.645c.354 0 .694.14.944.39l4.943 4.944H21.513l4.046-4.854ZM7.123 34.394a1.325 1.325 0 0 1 1.192-.737h9.018A2.667 2.667 0 0 0 20 36.324v2.666H4.824l2.299-4.596ZM2.667 73.657H20v2.667H2.667v-2.667Zm18.666-2.667H4V41.657h18.667V70.99h-1.334Zm1.334 6.667v-4h34.666v4H22.667Zm54.666-1.333H60v-2.667h17.333v2.667Z" fill="white"/><path d="M36 44.324c-.737 0-1.334.597-1.334 1.334v2.666a1.333 1.333 0 0 0 2.667 0v-2.666c0-.737-.597-1.334-1.334-1.334ZM17.333 45.656c-.736 0-1.333.597-1.333 1.334v2.666a1.333 1.333 0 1 0 2.667 0V46.99c0-.737-.597-1.334-1.334-1.334ZM9.333 45.656c-.736 0-1.333.597-1.333 1.334v2.666a1.333 1.333 0 1 0 2.667 0V46.99c0-.737-.597-1.334-1.334-1.334ZM17.333 53.656c-.736 0-1.333.597-1.333 1.334v2.666a1.333 1.333 0 0 0 2.667 0V54.99c0-.737-.597-1.334-1.334-1.334ZM9.333 53.656c-.736 0-1.333.597-1.333 1.334v2.666a1.333 1.333 0 0 0 2.667 0V54.99c0-.737-.597-1.334-1.334-1.334ZM17.333 61.656c-.736 0-1.333.597-1.333 1.334v2.666a1.333 1.333 0 0 0 2.667 0V62.99c0-.737-.597-1.334-1.334-1.334ZM9.333 61.656c-.736 0-1.333.597-1.333 1.334v2.666a1.333 1.333 0 0 0 2.667 0V62.99c0-.737-.597-1.334-1.334-1.334ZM70.667 45.656c-.736 0-1.333.597-1.333 1.334v2.666a1.333 1.333 0 1 0 2.667 0V46.99c0-.737-.597-1.334-1.334-1.334ZM62.667 45.656c-.736 0-1.333.597-1.333 1.334v2.666a1.333 1.333 0 1 0 2.667 0V46.99c0-.737-.597-1.334-1.334-1.334ZM70.667 53.656c-.736 0-1.333.597-1.333 1.334v2.666a1.333 1.333 0 0 0 2.667 0V54.99c0-.737-.597-1.334-1.334-1.334ZM62.667 53.656c-.736 0-1.333.597-1.333 1.334v2.666a1.333 1.333 0 0 0 2.667 0V54.99c0-.737-.597-1.334-1.334-1.334ZM70.667 61.656c-.736 0-1.333.597-1.333 1.334v2.666a1.333 1.333 0 0 0 2.667 0V62.99c0-.737-.597-1.334-1.334-1.334ZM62.667 61.656c-.736 0-1.333.597-1.333 1.334v2.666a1.333 1.333 0 0 0 2.667 0V62.99c0-.737-.597-1.334-1.334-1.334ZM44 44.324c-.737 0-1.334.597-1.334 1.334v2.666a1.333 1.333 0 0 0 2.667 0v-2.666c0-.737-.597-1.334-1.334-1.334Z" fill="white"/></svg>