<svg width="80" height="81" fill="none" xmlns="http://www.w3.org/2000/svg"><g clip-path="url(#members_svg__a)" fill="white"><path d="M45 56.574h2.5v23.75H45v-23.75ZM32.5 56.574H35v23.75h-2.5v-23.75Z"/><path d="M47.5 61.574h-1.25v-2.5h1.25a3.75 3.75 0 0 0 3.75-3.75v-13.75a6.257 6.257 0 0 0-6.25-6.25H35a6.257 6.257 0 0 0-6.25 6.25v13.75a3.75 3.75 0 0 0 3.75 3.75h1.25v2.5H32.5a6.257 6.257 0 0 1-6.25-6.25v-13.75a8.76 8.76 0 0 1 8.75-8.75h10a8.76 8.76 0 0 1 8.75 8.75v13.75a6.257 6.257 0 0 1-6.25 6.25Z"/><path d="M40 35.324a8.75 8.75 0 1 1 8.75-8.75 8.76 8.76 0 0 1-8.75 8.75Zm0-15a6.25 6.25 0 1 0 6.25 6.25 6.257 6.257 0 0 0-6.25-6.25ZM38.75 64.074h2.5v16.25h-2.5v-16.25ZM67.5 52.824H70v23.75h-2.5v-23.75ZM55 52.824h2.5v23.75H55v-23.75Z"/><path d="M70 57.824h-1.25v-2.5H70a3.75 3.75 0 0 0 3.75-3.75v-13.75a6.257 6.257 0 0 0-6.25-6.25h-10a6.257 6.257 0 0 0-4.659 2.084l-1.863-1.668a8.762 8.762 0 0 1 6.522-2.916h10a8.76 8.76 0 0 1 8.75 8.75v13.75a6.257 6.257 0 0 1-6.25 6.25Z"/><path d="M62.5 31.574a8.75 8.75 0 1 1 8.75-8.75 8.76 8.76 0 0 1-8.75 8.75Zm0-15a6.25 6.25 0 1 0 6.25 6.25 6.257 6.257 0 0 0-6.25-6.25ZM61.25 60.324h2.5v16.25h-2.5v-16.25ZM22.5 52.824H25v23.75h-2.5v-23.75ZM10 52.824h2.5v23.75H10v-23.75Z"/><path d="M11.25 57.824H10a6.258 6.258 0 0 1-6.25-6.25v-13.75a8.76 8.76 0 0 1 8.75-8.75h10a8.766 8.766 0 0 1 6.521 2.916l-1.862 1.668a6.256 6.256 0 0 0-4.659-2.084h-10a6.257 6.257 0 0 0-6.25 6.25v13.75a3.75 3.75 0 0 0 3.75 3.75h1.25v2.5Z"/><path d="M17.5 31.574a8.75 8.75 0 1 1 8.75-8.75 8.76 8.76 0 0 1-8.75 8.75Zm0-15a6.25 6.25 0 1 0 6.25 6.25 6.257 6.257 0 0 0-6.25-6.25Z"/><path d="M30 17.824a8.75 8.75 0 1 1 8.75-8.75 8.76 8.76 0 0 1-8.75 8.75Zm0-15a6.25 6.25 0 1 0 6.25 6.25A6.257 6.257 0 0 0 30 2.824ZM50 17.824a8.75 8.75 0 1 1 8.75-8.75 8.76 8.76 0 0 1-8.75 8.75Zm0-15a6.25 6.25 0 1 0 6.25 6.25A6.257 6.257 0 0 0 50 2.824ZM16.25 60.324h2.5v16.25h-2.5v-16.25Z"/></g><defs><clipPath id="members_svg__a"><path fill="#fff" transform="translate(0 .324)" d="M0 0h80v80H0z"/></clipPath></defs></svg>