<svg width="753" height="745" viewBox="0 0 753 745" fill="none" xmlns="http://www.w3.org/2000/svg">
<g clip-path="url(#clip0_42_2)">
<g filter="url(#filter0_d_42_2)">
<path fillRule="evenodd" clipRule="evenodd" d="M526.653 604.367C536.75 604.494 541.484 598.199 544.653 589.728C547.416 582.335 550.311 575.006 553.206 567.665C555.827 561.011 558.457 554.357 560.987 547.672C565.913 534.628 562.409 521.542 552.078 512.65C542.845 504.697 533.764 496.554 524.845 488.21C522.407 485.929 521.269 483.489 523.301 480.384C525.708 476.719 527.334 472.663 528.898 468.587C530.31 464.922 532.555 463.908 536.11 465.397C542.52 468.08 549.092 470.308 555.664 472.526C559.229 473.741 562.795 474.945 566.33 476.233C568.778 477.11 570.911 478.377 572.567 480.553C575.249 484.059 578.001 487.524 580.764 490.988C586.422 498.096 592.08 505.204 597.088 512.776C605.732 525.852 631.239 528.038 636.054 507.992C636.054 502.553 636.054 497.599 635.83 492.318C635.018 487.735 633.504 483.922 630.863 480.542C626.973 475.557 623.123 470.53 619.273 465.513C614.6 459.398 609.917 453.293 605.164 447.252C599.749 440.376 593.299 435.138 584.573 432.74C576.884 430.628 569.398 427.787 561.911 424.946C556.985 423.087 552.068 421.218 547.091 419.56C546.969 419.517 546.857 419.475 546.745 419.443C544.439 418.683 542.225 417.954 542.56 414.374C543.17 407.646 543.007 400.876 542.845 394.127C542.835 393.483 542.814 392.849 542.804 392.215C542.702 387.621 544.277 385.192 548.584 383.808C555.776 381.506 562.866 378.897 569.956 376.278C576.264 373.965 582.562 371.641 588.941 369.529C595.879 367.237 601.517 363.203 604.188 355.957C605.936 351.257 608.505 347.286 611.512 343.431C617.048 336.334 622.534 329.197 627.999 322.038C634.977 312.883 636.003 302.385 631.005 293.538C622.798 278.985 603.477 278.18 592.903 292.021C589.165 296.924 585.396 301.814 581.628 306.703C577.057 312.653 572.475 318.602 567.925 324.578C566.299 326.721 564.43 328.332 561.942 329.245C558.904 330.36 555.847 331.406 552.789 332.451C547.649 334.211 542.51 335.964 537.491 338.045C534.332 339.355 532.433 338.214 531.255 334.876C529.558 330.095 527.557 325.42 525.16 320.964C523.585 318.038 523.971 315.926 526.43 313.607C534.109 306.366 542.002 299.39 549.904 292.417C551.662 290.862 553.419 289.306 555.176 287.748C569.753 274.836 571.703 268.944 567.254 251.98C563.242 236.709 556.832 222.132 550.473 207.649C549.661 205.795 548.848 203.944 548.035 202.091C543.617 191.978 532.585 187.469 522.336 190.201C512.026 192.948 505.819 201.693 505.789 213.176C505.768 217.716 507.16 221.806 508.704 225.906C511.833 234.261 515.144 242.541 518.527 250.793C519.929 254.237 519.878 257.224 516.891 259.793C512.462 263.609 508.115 267.523 503.767 271.437C502.498 272.581 501.228 273.726 499.948 274.867C497.215 277.321 494.808 277.431 491.964 274.736C481.938 265.259 471.221 256.699 459.438 249.677C457.214 248.351 456.574 246.498 457.112 243.898C458.321 238.054 459.367 232.113 459.428 226.167C459.743 199.077 450.235 176.314 430.204 158.885C419.873 149.893 408.364 142.937 394.102 142.793C393.534 142.788 392.954 142.806 392.365 142.825C390.273 142.889 388.048 142.959 385.692 142C380.46 142 375.696 142 370.617 142.233C369.855 142.277 369.094 142.318 368.342 142.359C361.729 142.714 355.33 143.058 349.306 145.377C334.11 151.219 322.083 161.412 312.687 175.088C298.732 195.406 296.05 218.082 299.925 242.008C300.587 246.091 299.999 248.709 296.503 250.796C285.316 257.477 274.88 265.238 265.787 274.816C263.425 277.303 261.384 277.347 258.775 275.095C251.881 269.147 245.105 263.066 238.381 256.913C235.559 254.328 235.104 251.689 236.619 248.037C240.305 239.161 243.953 230.256 247.008 221.114C248.664 216.157 248.822 211.078 247.443 206.064C244.88 196.738 237.007 190.128 227.91 189.417C218.089 188.65 208.794 194.347 204.881 204.266C203.297 208.282 201.69 212.289 200.084 216.296C195.637 227.389 191.19 238.481 187.217 249.762C184.657 257.031 184.441 264.846 188.681 271.653C192.257 277.395 196.99 282.227 202.011 286.763C205.43 289.85 208.879 292.902 212.327 295.954C218.789 301.671 225.25 307.388 231.513 313.344C233.834 315.553 234.03 317.573 232.745 320.31C232.101 321.68 231.419 323.033 230.737 324.386C229.138 327.558 227.539 330.731 226.433 334.126C225.098 338.224 222.831 339.143 219.039 337.559C212.429 334.802 205.662 332.505 198.895 330.206C196.332 329.335 193.769 328.464 191.215 327.568C188.732 326.697 186.775 325.265 185.1 323.121C177.105 312.89 169.193 302.591 161.342 292.24C154.722 283.512 145.049 280.05 135.685 283.131C119.745 288.374 115.018 307.715 126.197 322.232C128.575 325.32 130.981 328.387 133.385 331.453C139.102 338.742 144.819 346.029 150.17 353.602C156.652 362.78 164.777 368.811 175.417 371.821C181.608 373.585 187.641 375.877 193.675 378.168C198.77 380.112 203.867 382.045 209.062 383.661C212.951 384.875 214.494 386.892 214.354 391.191C214.334 391.814 214.312 392.437 214.291 393.06C214.083 399.112 213.873 405.185 214.76 411.216C215.627 417.12 215.104 418.155 209.526 420.056C202.023 422.612 194.573 425.326 187.125 428.051C180.682 430.396 174.239 432.751 167.762 434.99C159.987 437.683 152.809 441.57 147.702 448.657C146.107 450.875 144.413 453.008 142.719 455.152C140.648 457.761 138.578 460.38 136.69 463.126C134.75 465.957 132.566 468.608 130.374 471.269C125.312 477.416 120.209 483.605 118 492.086C118 497.884 118 503.186 118.218 508.805C118.663 509.745 119.016 510.675 119.358 511.583C120.104 513.558 120.806 515.417 122.321 516.991C131.288 526.243 147.631 524.817 156.061 513.706L156.827 512.702C162.436 505.309 168.046 497.916 173.792 490.65C174.685 489.52 175.501 488.295 176.319 487.059C178.506 483.742 180.713 480.405 184.468 478.948C190.861 476.444 197.34 474.216 203.822 471.977C210.027 469.833 216.232 467.689 222.361 465.312C225.058 464.277 226.813 465.165 228.004 467.985C229.777 472.167 231.638 476.349 233.925 480.236C236.152 484.028 235.363 486.647 232.266 489.298C227.828 493.111 223.495 497.05 219.162 500.99C213.19 506.418 207.219 511.847 200.977 516.948C191.203 524.922 188.401 535.389 192.964 547.397C195.058 552.911 197.236 558.382 199.414 563.863C202.601 571.879 205.788 579.885 208.711 588.007C212.141 597.533 217.196 604.23 228.156 604.599C231.016 604.599 233.423 604.599 236.143 604.367C236.571 604.282 236.996 604.198 237.416 604.124C241.048 603.448 244.331 602.825 247.121 600.047C254.58 592.601 255.254 583.75 252.226 574.33C249.71 566.503 246.583 558.878 243.364 551.316C240.643 544.926 240.904 543.173 246.001 539.096C248.643 536.984 251.138 534.702 253.632 532.421C254.688 531.46 255.744 530.488 256.812 529.538C260.798 525.978 262.724 524.204 264.656 524.194C266.527 524.194 268.402 525.841 272.157 529.147C308.776 561.37 351.175 574.108 398.541 568.626C432.987 564.634 463.166 550.048 488.937 525.873C491.791 523.19 494.107 523.084 496.86 525.588C497.723 526.369 498.587 527.161 499.45 527.954C503.036 531.217 506.622 534.491 510.339 537.565C513.62 540.279 514.088 542.888 512.523 546.69C512.188 547.493 511.853 548.285 511.528 549.087C508.115 557.336 504.692 565.595 501.908 574.087C498.749 583.708 499.511 592.643 507.099 600.248C509.314 602.466 511.934 603.004 514.677 603.575C515.987 603.849 517.338 604.134 518.669 604.599C521.533 604.599 523.941 604.599 526.653 604.367ZM519.157 601.431C518.11 601.093 517.115 600.86 516.19 600.66C515.845 600.586 515.52 600.522 515.205 600.459C514.525 600.311 513.905 600.184 513.275 600.026C511.548 599.593 510.289 599.044 509.212 597.966C505.839 594.587 504.102 591.038 503.473 587.373C502.843 583.655 503.33 579.579 504.793 575.111C507.536 566.736 510.908 558.593 514.332 550.323C514.657 549.531 514.992 548.739 515.317 547.936C516.231 545.729 516.759 543.395 516.211 540.997C515.672 538.578 514.169 536.688 512.239 535.093C508.582 532.062 505.067 528.862 501.492 525.588C500.618 524.795 499.745 524.003 498.861 523.201C497.185 521.68 495.184 520.529 492.827 520.624C490.511 520.708 488.561 521.954 486.895 523.518C461.581 547.271 431.991 561.561 398.206 565.479C351.642 570.865 310.076 558.371 274.125 526.728L273.977 526.602C272.19 525.028 270.662 523.676 269.34 522.757C267.961 521.796 266.366 520.972 264.469 521.036C262.607 521.088 261.043 521.997 259.687 522.989C258.431 523.919 256.968 525.218 255.254 526.749C255.113 526.876 254.97 527.003 254.826 527.13C253.699 528.144 252.609 529.136 251.534 530.119C249.077 532.368 246.703 534.544 244.144 536.582C241.644 538.578 239.394 540.67 238.772 543.669C238.17 546.574 239.272 549.541 240.578 552.604C243.791 560.145 246.867 567.655 249.336 575.333C250.743 579.705 251.215 583.729 250.605 587.384C250.001 590.985 248.309 594.471 245.012 597.755C242.917 599.846 240.565 600.301 236.79 601.019C236.45 601.082 236.1 601.156 235.737 601.219C233.241 601.431 231.001 601.431 228.208 601.431C223.397 601.262 220.125 599.73 217.665 597.396C215.116 594.978 213.206 591.45 211.565 586.898C208.635 578.755 205.402 570.622 202.191 562.553C200.015 557.082 197.851 551.633 195.798 546.236C193.711 540.733 193.389 535.832 194.533 531.502C195.678 527.161 198.376 523.095 202.858 519.441C208.311 514.984 213.547 510.294 218.708 505.616C219.532 504.866 220.354 504.116 221.175 503.377C225.509 499.437 229.805 495.529 234.207 491.748C235.98 490.227 237.553 488.337 238.07 485.865C238.602 483.331 237.873 480.88 236.525 478.588C234.351 474.892 232.558 470.868 230.793 466.707C230.048 464.943 228.898 463.232 227.026 462.324C225.105 461.405 223.092 461.658 221.3 462.345C215.221 464.7 209.061 466.823 202.841 468.977L202.447 469.104C196.111 471.301 189.716 473.508 183.398 475.98C180.054 477.279 177.781 479.697 176.019 482.053C175.226 483.119 174.488 484.228 173.813 485.253C173.744 485.358 173.676 485.464 173.607 485.559C172.854 486.7 172.166 487.724 171.439 488.643C165.673 495.931 160.045 503.345 154.441 510.727L153.669 511.741C146.252 521.521 132.016 522.535 124.469 514.741C123.761 514.002 123.274 513.125 122.77 511.91C122.633 511.583 122.469 511.15 122.286 510.664C121.982 509.861 121.622 508.921 121.239 508.045C121.052 502.859 121.047 497.927 121.047 492.519C122.503 487.217 125.232 482.824 128.512 478.525C129.848 476.772 131.239 475.082 132.669 473.35C133.052 472.885 133.438 472.42 133.827 471.945C135.641 469.727 137.486 467.425 139.17 464.964C140.818 462.566 142.624 460.253 144.505 457.877C144.694 457.645 144.884 457.402 145.075 457.159C146.761 455.036 148.501 452.839 150.141 450.558C154.718 444.21 161.226 440.598 168.726 438C175.229 435.74 181.693 433.385 188.133 431.04C188.636 430.85 189.14 430.67 189.643 430.491C196.591 427.956 203.512 425.442 210.475 423.066C211.892 422.591 213.187 422.094 214.258 421.503C215.364 420.88 216.427 420.045 217.166 418.778C217.904 417.511 218.119 416.159 218.139 414.87C218.158 413.624 217.99 412.23 217.772 410.74C216.932 405.016 217.129 399.239 217.337 393.145C217.359 392.532 217.38 391.92 217.399 391.297C217.482 388.772 217.093 386.375 215.663 384.379C214.249 382.404 212.17 381.326 209.935 380.629C204.833 379.045 199.821 377.133 194.71 375.19C194.244 375.011 193.778 374.842 193.311 374.662C187.749 372.55 182.065 370.427 176.218 368.769C166.275 365.949 158.722 360.362 152.626 351.733C147.227 344.086 141.432 336.704 135.694 329.383C133.301 326.331 130.917 323.291 128.575 320.252C123.541 313.713 122.198 306.258 123.725 299.981C125.246 293.731 129.648 288.439 136.604 286.151C144.616 283.516 153.016 286.379 158.95 294.201C166.808 304.562 174.729 314.875 182.734 325.12C184.762 327.715 187.196 329.503 190.241 330.57C192.857 331.487 195.456 332.371 198.038 333.25C204.771 335.531 211.394 337.791 217.903 340.506C220.077 341.414 222.548 341.932 224.87 340.886C227.232 339.819 228.536 337.548 229.32 335.14C230.347 331.99 231.771 329.166 233.315 326.104C234.022 324.703 234.753 323.254 235.482 321.7C236.265 320.035 236.811 318.147 236.488 316.113C236.16 314.049 235.028 312.395 233.57 311.007C227.271 305.014 220.731 299.228 214.24 293.485C210.802 290.443 207.377 287.412 204.01 284.371C199.062 279.901 194.583 275.299 191.239 269.931C187.676 264.211 187.734 257.508 190.079 250.851C194.026 239.642 198.435 228.643 202.874 217.572C204.486 213.552 206.102 209.522 207.701 205.469C211.103 196.841 219.155 191.911 227.681 192.578C235.503 193.188 242.298 198.881 244.513 206.934C245.717 211.311 245.583 215.722 244.13 220.074C241.116 229.094 237.509 237.901 233.822 246.781C232.925 248.943 232.443 251.2 232.885 253.497C233.333 255.825 234.633 257.703 236.368 259.291C243.106 265.457 249.906 271.561 256.829 277.534C258.383 278.876 260.266 279.978 262.479 279.899C264.718 279.819 266.515 278.559 267.955 277.041C276.808 267.718 287.005 260.121 298.021 253.544C300.206 252.24 301.828 250.549 302.64 248.238C303.402 246.044 303.291 243.716 302.935 241.481C299.151 218.149 301.797 196.39 315.165 176.929C324.246 163.714 335.806 153.947 350.362 148.348C355.929 146.208 361.851 145.886 368.525 145.522C369.266 145.482 370.018 145.441 370.77 145.398C375.595 145.177 380.135 145.168 385.163 145.168C387.977 146.161 390.791 146.062 392.762 145.991C393.259 145.974 393.696 145.958 394.082 145.962C407.318 146.096 418.146 152.528 428.253 161.315C447.543 178.102 456.685 199.941 456.381 226.129C456.32 231.741 455.334 237.424 454.136 243.231C453.79 244.912 453.74 246.717 454.41 248.45C455.101 250.22 456.37 251.504 457.925 252.426C469.474 259.308 480.008 267.718 489.912 277.081C491.639 278.713 493.65 279.896 495.986 279.901C498.323 279.905 500.293 278.743 501.939 277.267C503.219 276.116 504.499 274.966 505.779 273.818C510.126 269.908 514.443 266.024 518.842 262.232C520.802 260.537 522.031 258.482 522.366 256.078C522.691 253.778 522.143 251.55 521.33 249.553C517.958 241.315 514.657 233.068 511.538 224.755C510.004 220.659 508.816 217.068 508.836 213.186C508.867 203.035 514.23 195.632 523.098 193.27C532.128 190.862 541.545 194.889 545.262 203.401C546.075 205.26 546.888 207.115 547.7 208.966C554.079 223.479 560.377 237.81 564.319 252.815C566.513 261.208 566.899 266.102 565.477 270.336C564.014 274.664 560.479 278.886 553.206 285.337C551.448 286.888 549.701 288.438 547.944 289.991C540.041 296.965 532.098 303.981 524.378 311.26C522.905 312.654 521.655 314.344 521.28 316.492C520.904 318.667 521.523 320.693 522.498 322.511C524.804 326.799 526.744 331.319 528.39 335.975C529.091 337.96 530.229 339.957 532.25 341.023C534.343 342.143 536.598 341.826 538.619 340.992C543.576 338.932 548.533 337.242 553.582 335.51C556.66 334.464 559.778 333.398 562.957 332.232C566.117 331.072 568.422 329.025 570.312 326.543C574.873 320.56 579.434 314.635 583.994 308.701C587.763 303.816 591.521 298.925 595.29 293.991C604.676 281.708 621.365 282.707 628.385 295.143C632.651 302.699 631.919 311.784 625.601 320.069C620.146 327.222 614.671 334.348 609.145 341.435C606.037 345.427 603.244 349.684 601.344 354.817C599.109 360.869 594.416 364.396 588.017 366.508C581.597 368.642 575.248 370.976 568.951 373.289L567.762 373.733C561.058 376.194 554.404 378.623 547.69 380.788C545.181 381.59 543.007 382.847 541.555 384.981C540.102 387.114 539.696 389.638 539.757 392.289C539.767 392.923 539.787 393.546 539.797 394.18C539.96 400.96 540.122 407.54 539.523 414.078C539.401 415.367 539.503 416.623 539.929 417.785C540.366 418.968 541.077 419.876 541.88 420.542C543.16 421.598 544.815 422.137 545.831 422.464C545.943 422.506 546.055 422.538 546.156 422.57C551.073 424.217 555.928 426.055 560.834 427.914C562.124 428.4 563.425 428.896 564.725 429.382C570.952 431.726 577.28 434.018 583.791 435.803C591.745 437.99 597.677 442.753 602.797 449.259C607.571 455.321 612.213 461.373 616.865 467.446C620.705 472.463 624.555 477.49 628.506 482.539C630.711 485.38 632.052 488.611 632.793 492.688C632.996 497.673 633.006 502.373 633.006 507.591C630.904 515.713 624.789 519.356 617.891 519.642C610.679 519.927 603.234 516.473 599.597 510.981C594.518 503.292 588.708 495.994 582.989 488.823C580.256 485.39 577.544 481.979 574.954 478.578C572.821 475.79 570.129 474.248 567.335 473.234C563.668 471.913 560.042 470.678 556.456 469.463C549.965 467.266 543.576 465.101 537.248 462.461C535.104 461.563 532.738 461.151 530.503 462.144C528.268 463.137 526.927 465.196 526.074 467.414C524.5 471.491 522.976 475.251 520.782 478.599C519.37 480.754 518.842 483.088 519.451 485.432C520.01 487.587 521.422 489.277 522.803 490.565C531.752 498.93 540.874 507.115 550.138 515.089C559.494 523.148 562.582 534.787 558.153 546.51C555.623 553.185 553.013 559.818 550.382 566.472L549.986 567.486C547.223 574.477 544.46 581.501 541.809 588.577C540.305 592.612 538.548 595.77 536.232 597.903C534.007 599.952 531.051 601.251 526.694 601.198H526.551L526.399 601.209C523.982 601.42 521.808 601.431 519.157 601.431Z" fill="#6399F0"/>
</g>
<g filter="url(#filter1_dddd_42_2)">
<path fillRule="evenodd" clipRule="evenodd" d="M303.444 295.332C294.828 302.976 286.954 310.639 280.228 319.429C264.852 339.523 256.284 362.569 254.273 387.938C252.196 414.152 257.182 439.014 269.779 462.133C281.215 483.119 296.771 499.743 316.792 511.583C340.846 525.809 366.647 531.227 394.286 527.636C408.386 525.809 421.713 521.606 434.319 515.121C451.12 506.481 465.3 494.219 476.901 478.821C486.642 465.914 493.58 451.54 498.324 435.697C502.509 421.703 503.129 407.487 503.027 392.69C502.905 376.214 498.872 360.689 492.3 345.66C484.377 327.547 473.345 311.933 458.545 299.349C451.74 293.564 444.812 288.303 437.102 284.386C436.696 284.178 436.421 284.057 436.208 283.986C436.178 283.978 436.157 283.969 436.137 283.963C436.086 284.012 436.015 284.086 435.934 284.192C435.04 285.286 433.984 286.112 433.14 286.745C432.947 286.895 432.754 287.034 432.582 287.165C431.942 287.641 431.444 288.01 430.977 288.442C419.153 299.418 405.033 305.945 389.553 307.555C364.493 310.161 341.13 304.32 322.49 284.573C322.145 284.209 321.901 284.019 321.738 283.922C321.606 283.836 321.545 283.827 321.525 283.824C321.505 283.82 321.2 283.776 320.276 284.254C317.462 285.711 314.801 287.505 312.007 289.471C311.52 289.818 311.022 290.171 310.514 290.529C308.279 292.116 305.933 293.785 303.444 295.332ZM308.777 287.931C306.471 289.565 304.145 291.218 301.666 292.748C292.913 300.499 284.8 308.365 277.843 317.456C262.082 338.055 253.295 361.692 251.236 387.684C249.11 414.5 254.219 440.006 267.127 463.696C278.82 485.147 294.761 502.193 315.288 514.339C339.911 528.904 366.362 534.449 394.662 530.784C409.107 528.904 422.759 524.605 435.67 517.962C452.908 509.101 467.434 496.522 479.298 480.785C489.283 467.53 496.394 452.807 501.229 436.637C505.556 422.168 506.176 407.54 506.074 392.669C505.952 375.655 501.788 359.685 495.073 344.35C486.977 325.839 475.672 309.819 460.475 296.896C453.598 291.052 446.468 285.612 438.443 281.539C436.645 280.626 435.202 280.183 433.608 282.144C432.846 283.077 431.861 283.804 430.875 284.535C430.215 285.027 429.544 285.521 428.945 286.078C417.599 296.618 404.079 302.861 389.248 304.403C364.869 306.937 342.511 301.257 324.664 282.353C322.785 280.362 321.241 280.214 318.915 281.417C315.359 283.257 312.099 285.572 308.777 287.931Z" fill="#6399F0"/>
</g>
<g filter="url(#filter2_dddd_42_2)">
<path fillRule="evenodd" clipRule="evenodd" d="M341.109 191.911C332.851 204.489 328.544 217.147 331.032 231.897C331.235 233.077 331.449 233.768 331.632 234.153C331.662 234.225 331.693 234.28 331.723 234.32C331.764 234.321 331.835 234.32 331.926 234.315C332.333 234.286 332.942 234.159 333.877 233.866C348.941 229.164 364.289 227.449 379.861 227.429C395.596 227.41 410.782 230.146 425.704 234.227C425.755 234.242 425.806 234.256 425.856 234.268C425.866 234.208 425.887 234.146 425.897 234.079C428.03 223.433 426.994 213.141 422.829 203.314C416.013 187.201 399.69 174.386 381.507 173.591C365.214 172.877 352.242 179.285 341.109 191.911ZM331.601 234.309C331.601 234.309 331.601 234.309 331.611 234.31C331.601 234.309 331.601 234.309 331.601 234.309ZM331.784 234.411C331.784 234.416 331.784 234.419 331.784 234.419C331.784 234.419 331.784 234.416 331.784 234.411ZM381.639 170.426C364.249 169.664 350.403 176.605 338.712 189.938C330.098 202.994 325.344 216.539 328.036 232.445C328.92 237.705 330.717 238.16 334.75 236.9C349.469 232.309 364.503 230.616 379.872 230.597C395.261 230.578 410.173 233.256 424.922 237.291C427.786 238.074 428.345 237.39 428.883 234.726C431.139 223.439 430.041 212.473 425.623 202.037C418.37 184.902 401.061 171.276 381.639 170.426Z" fill="#6399F0"/>
</g>
<g filter="url(#filter3_ddd_42_2)">
<path fillRule="evenodd" clipRule="evenodd" d="M386.525 273.018L386.637 273C389.836 272.511 392.792 271.667 395.738 270.464C384.412 268.751 373.462 268.599 362.613 270.572C370.191 273.705 377.911 275.032 386.413 273.043L386.525 273.018ZM357.433 271.68C356.051 271 354.68 270.274 353.309 269.512C354.802 269.081 356.295 268.691 357.788 268.342C371.898 265.053 386.037 265.382 400.726 268.093C402.28 268.38 403.834 268.693 405.398 269.032C403.976 269.892 402.575 270.682 401.193 271.401C396.622 273.766 392.132 275.36 387.084 276.135C376.225 278.673 366.636 276.196 357.433 271.68Z" fill="#6399F0"/>
</g>
<g filter="url(#filter4_dddddd_42_2)">
<path fillRule="evenodd" clipRule="evenodd" d="M295.761 389.575C295.763 395.732 295.765 401.921 295.765 408.153C295.765 413.201 295.762 418.218 295.759 423.182C295.751 435.19 295.744 447.009 295.782 458.827C295.804 465.471 300.011 471.85 305.862 474.226C309.366 475.652 312.515 476.011 315.441 475.473C318.366 474.934 321.271 473.455 324.227 470.857C329.235 466.453 330.2 460.57 330.241 453.42C330.383 422.812 330.332 392.194 330.271 361.576C330.271 361.09 330.271 360.604 330.271 360.129C330.261 354.468 330.261 349.124 329.469 343.727C328.727 338.721 326.655 335.003 323.577 332.557C320.489 330.096 316.081 328.693 310.291 328.942C302.855 329.261 295.789 336.978 295.775 345.332C295.752 360.013 295.756 374.704 295.761 389.575ZM292.713 389.585C292.715 395.732 292.718 401.921 292.718 408.153C292.718 413.201 292.715 418.207 292.711 423.182C292.703 435.19 292.696 447.009 292.735 458.838C292.76 466.77 297.727 474.321 304.755 477.173C312.627 480.373 319.636 479.053 326.198 473.276C332.283 467.921 333.248 460.792 333.288 453.43C333.43 422.812 333.38 392.184 333.319 361.565C333.319 361.069 333.319 360.573 333.319 360.087C333.319 354.479 333.309 348.891 332.476 343.252C330.8 331.864 322.805 325.233 310.169 325.775C301.006 326.169 292.744 335.373 292.728 345.322C292.704 360.013 292.708 374.704 292.713 389.585Z" fill="#6399F0"/>
</g>
<g filter="url(#filter5_dddddd_42_2)">
<path fillRule="evenodd" clipRule="evenodd" d="M427.818 375.137C427.818 379.415 427.818 383.724 427.818 388.086C427.818 394.074 427.818 400.031 427.828 405.967C427.838 423.362 427.848 440.566 427.757 457.75C427.737 461.151 428.549 464.077 430.144 467.15C433.75 474.078 442.019 476.782 447.87 475.504C456.067 473.719 461.329 466.875 461.329 459.144C461.349 420.975 461.339 382.815 461.329 344.646C461.329 344.171 461.329 343.748 461.339 343.378C461.349 342.206 461.359 341.53 461.166 340.865C458.759 332.671 450.237 327.4 440.983 328.957L440.495 325.829C451.059 324.052 461.166 330.041 464.082 339.935C464.427 341.118 464.407 342.428 464.387 343.716C464.376 344.033 464.376 344.339 464.376 344.646C464.387 382.815 464.397 420.975 464.376 459.144C464.376 468.46 458.018 476.529 448.5 478.609C441.572 480.12 431.82 477.025 427.463 468.66C425.665 465.196 424.679 461.742 424.71 457.729C424.801 440.556 424.791 423.372 424.781 405.977C424.771 400.041 424.771 394.085 424.771 388.086C424.771 383.734 424.771 379.425 424.771 375.148C424.771 365.273 424.761 355.567 424.771 345.871L427.818 345.881C427.808 355.577 427.818 365.262 427.818 375.137ZM424.771 345.871L427.818 345.881C427.828 337.612 433.842 330.158 440.983 328.957L440.495 325.829C431.769 327.297 424.791 336.175 424.771 345.871Z" fill="#6399F0"/>
</g>
<g filter="url(#filter6_dddddd_42_2)">
<path fillRule="evenodd" clipRule="evenodd" d="M362.583 477.775L362.634 477.881C362.766 478.134 362.868 478.314 362.969 478.472C362.979 478.483 362.99 478.504 363 478.525C363.081 478.673 363.243 478.937 363.386 479.222C367.154 487.059 375.209 491.146 381.792 489.298C389.938 487.006 395.698 480.246 395.454 471.818C394.946 454.74 394.875 437.599 395.475 420.489C395.617 416.38 393.727 412.198 390.568 408.955C387.409 405.702 383.305 403.727 379.537 403.664C368.901 403.506 361.578 412.039 361.71 420.658C361.913 433.131 361.872 445.615 361.821 458.067C361.811 463.02 361.791 467.963 361.791 472.896C361.791 473.075 361.781 473.244 361.781 473.402C361.781 475.42 361.781 476.444 362.522 477.68L362.583 477.775ZM360.653 480.637C360.592 480.5 360.511 480.373 360.42 480.215C360.298 480.003 360.145 479.75 359.952 479.37C358.703 477.321 358.723 475.388 358.733 473.487C358.733 473.286 358.744 473.096 358.744 472.896C358.744 467.942 358.764 462.978 358.774 458.025C358.825 445.583 358.866 433.152 358.662 420.721C358.5 410.212 367.307 400.316 379.588 400.496C388.984 400.643 398.888 410.212 398.522 420.605C397.923 437.63 397.994 454.698 398.491 471.723C398.796 481.926 391.787 489.762 382.584 492.35C374.336 494.674 364.94 489.551 360.653 480.637Z" fill="#6399F0"/>
</g>
</g>
<defs>
<filter id="filter0_d_42_2" x="103.493" y="127.493" width="547.067" height="491.612" filterUnits="userSpaceOnUse" color-interpolation-filters="sRGB">
<feFlood flood-opacity="0" result="BackgroundImageFix"/>
<feColorMatrix in="SourceAlpha" type="matrix" values="0 0 0 0 0 0 0 0 0 0 0 0 0 0 0 0 0 0 127 0" result="hardAlpha"/>
<feOffset/>
<feGaussianBlur stdDeviation="7.25334"/>
<feColorMatrix type="matrix" values="0 0 0 0 0.388235 0 0 0 0 0.6 0 0 0 0 0.941176 0 0 0 1 0"/>
<feBlend mode="normal" in2="BackgroundImageFix" result="effect1_dropShadow_42_2"/>
<feBlend mode="normal" in="SourceGraphic" in2="effect1_dropShadow_42_2" result="shape"/>
</filter>
<filter id="filter1_dddd_42_2" x="-699.31" y="-669.427" width="2155.47" height="2151.39" filterUnits="userSpaceOnUse" color-interpolation-filters="sRGB">
<feFlood flood-opacity="0" result="BackgroundImageFix"/>
<feColorMatrix in="SourceAlpha" type="matrix" values="0 0 0 0 0 0 0 0 0 0 0 0 0 0 0 0 0 0 127 0" result="hardAlpha"/>
<feOffset/>
<feGaussianBlur stdDeviation="11.3105"/>
<feColorMatrix type="matrix" values="0 0 0 0 0.388235 0 0 0 0 0.6 0 0 0 0 0.941176 0 0 0 1 0"/>
<feBlend mode="normal" in2="BackgroundImageFix" result="effect1_dropShadow_42_2"/>
<feColorMatrix in="SourceAlpha" type="matrix" values="0 0 0 0 0 0 0 0 0 0 0 0 0 0 0 0 0 0 127 0" result="hardAlpha"/>
<feOffset/>
<feGaussianBlur stdDeviation="22.621"/>
<feColorMatrix type="matrix" values="0 0 0 0 0.388235 0 0 0 0 0.6 0 0 0 0 0.941176 0 0 0 1 0"/>
<feBlend mode="normal" in2="effect1_dropShadow_42_2" result="effect2_dropShadow_42_2"/>
<feColorMatrix in="SourceAlpha" type="matrix" values="0 0 0 0 0 0 0 0 0 0 0 0 0 0 0 0 0 0 127 0" result="hardAlpha"/>
<feOffset/>
<feGaussianBlur stdDeviation="271.452"/>
<feColorMatrix type="matrix" values="0 0 0 0 0.388235 0 0 0 0 0.6 0 0 0 0 0.941176 0 0 0 1 0"/>
<feBlend mode="normal" in2="effect2_dropShadow_42_2" result="effect3_dropShadow_42_2"/>
<feColorMatrix in="SourceAlpha" type="matrix" values="0 0 0 0 0 0 0 0 0 0 0 0 0 0 0 0 0 0 127 0" result="hardAlpha"/>
<feOffset/>
<feGaussianBlur stdDeviation="475.04"/>
<feColorMatrix type="matrix" values="0 0 0 0 0.388235 0 0 0 0 0.6 0 0 0 0 0.941176 0 0 0 1 0"/>
<feBlend mode="normal" in2="effect3_dropShadow_42_2" result="effect4_dropShadow_42_2"/>
<feBlend mode="normal" in="SourceGraphic" in2="effect4_dropShadow_42_2" result="shape"/>
</filter>
<filter id="filter2_dddd_42_2" x="-55.0288" y="-211.943" width="867.363" height="831.851" filterUnits="userSpaceOnUse" color-interpolation-filters="sRGB">
<feFlood flood-opacity="0" result="BackgroundImageFix"/>
<feColorMatrix in="SourceAlpha" type="matrix" values="0 0 0 0 0 0 0 0 0 0 0 0 0 0 0 0 0 0 127 0" result="hardAlpha"/>
<feOffset/>
<feGaussianBlur stdDeviation="4.55134"/>
<feColorMatrix type="matrix" values="0 0 0 0 0.388235 0 0 0 0 0.6 0 0 0 0 0.941176 0 0 0 1 0"/>
<feBlend mode="normal" in2="BackgroundImageFix" result="effect1_dropShadow_42_2"/>
<feColorMatrix in="SourceAlpha" type="matrix" values="0 0 0 0 0 0 0 0 0 0 0 0 0 0 0 0 0 0 127 0" result="hardAlpha"/>
<feOffset/>
<feGaussianBlur stdDeviation="9.10268"/>
<feColorMatrix type="matrix" values="0 0 0 0 0.388235 0 0 0 0 0.6 0 0 0 0 0.941176 0 0 0 1 0"/>
<feBlend mode="normal" in2="effect1_dropShadow_42_2" result="effect2_dropShadow_42_2"/>
<feColorMatrix in="SourceAlpha" type="matrix" values="0 0 0 0 0 0 0 0 0 0 0 0 0 0 0 0 0 0 127 0" result="hardAlpha"/>
<feOffset/>
<feGaussianBlur stdDeviation="31.8594"/>
<feColorMatrix type="matrix" values="0 0 0 0 0.388235 0 0 0 0 0.6 0 0 0 0 0.941176 0 0 0 1 0"/>
<feBlend mode="normal" in2="effect2_dropShadow_42_2" result="effect3_dropShadow_42_2"/>
<feColorMatrix in="SourceAlpha" type="matrix" values="0 0 0 0 0 0 0 0 0 0 0 0 0 0 0 0 0 0 127 0" result="hardAlpha"/>
<feOffset/>
<feGaussianBlur stdDeviation="191.156"/>
<feColorMatrix type="matrix" values="0 0 0 0 0.388235 0 0 0 0 0.6 0 0 0 0 0.941176 0 0 0 1 0"/>
<feBlend mode="normal" in2="effect3_dropShadow_42_2" result="effect4_dropShadow_42_2"/>
<feBlend mode="normal" in="SourceGraphic" in2="effect4_dropShadow_42_2" result="shape"/>
</filter>
<filter id="filter3_ddd_42_2" x="159.454" y="72.1131" width="439.799" height="398.894" filterUnits="userSpaceOnUse" color-interpolation-filters="sRGB">
<feFlood flood-opacity="0" result="BackgroundImageFix"/>
<feColorMatrix in="SourceAlpha" type="matrix" values="0 0 0 0 0 0 0 0 0 0 0 0 0 0 0 0 0 0 127 0" result="hardAlpha"/>
<feOffset/>
<feGaussianBlur stdDeviation="2.30779"/>
<feColorMatrix type="matrix" values="0 0 0 0 0.388235 0 0 0 0 0.6 0 0 0 0 0.941176 0 0 0 1 0"/>
<feBlend mode="normal" in2="BackgroundImageFix" result="effect1_dropShadow_42_2"/>
<feColorMatrix in="SourceAlpha" type="matrix" values="0 0 0 0 0 0 0 0 0 0 0 0 0 0 0 0 0 0 127 0" result="hardAlpha"/>
<feOffset/>
<feGaussianBlur stdDeviation="4.61558"/>
<feColorMatrix type="matrix" values="0 0 0 0 0.388235 0 0 0 0 0.6 0 0 0 0 0.941176 0 0 0 1 0"/>
<feBlend mode="normal" in2="effect1_dropShadow_42_2" result="effect2_dropShadow_42_2"/>
<feColorMatrix in="SourceAlpha" type="matrix" values="0 0 0 0 0 0 0 0 0 0 0 0 0 0 0 0 0 0 127 0" result="hardAlpha"/>
<feOffset/>
<feGaussianBlur stdDeviation="96.9272"/>
<feColorMatrix type="matrix" values="0 0 0 0 0.388235 0 0 0 0 0.6 0 0 0 0 0.941176 0 0 0 1 0"/>
<feBlend mode="normal" in2="effect2_dropShadow_42_2" result="effect3_dropShadow_42_2"/>
<feBlend mode="normal" in="SourceGraphic" in2="effect3_dropShadow_42_2" result="shape"/>
</filter>
<filter id="filter4_dddddd_42_2" x="-255.357" y="-222.318" width="1136.8" height="1249.25" filterUnits="userSpaceOnUse" color-interpolation-filters="sRGB">
<feFlood flood-opacity="0" result="BackgroundImageFix"/>
<feColorMatrix in="SourceAlpha" type="matrix" values="0 0 0 0 0 0 0 0 0 0 0 0 0 0 0 0 0 0 127 0" result="hardAlpha"/>
<feOffset/>
<feGaussianBlur stdDeviation="6.52454"/>
<feColorMatrix type="matrix" values="0 0 0 0 0.4 0 0 0 0 0.611765 0 0 0 0 0.941176 0 0 0 1 0"/>
<feBlend mode="normal" in2="BackgroundImageFix" result="effect1_dropShadow_42_2"/>
<feColorMatrix in="SourceAlpha" type="matrix" values="0 0 0 0 0 0 0 0 0 0 0 0 0 0 0 0 0 0 127 0" result="hardAlpha"/>
<feOffset/>
<feGaussianBlur stdDeviation="13.0491"/>
<feColorMatrix type="matrix" values="0 0 0 0 0.4 0 0 0 0 0.611765 0 0 0 0 0.941176 0 0 0 1 0"/>
<feBlend mode="normal" in2="effect1_dropShadow_42_2" result="effect2_dropShadow_42_2"/>
<feColorMatrix in="SourceAlpha" type="matrix" values="0 0 0 0 0 0 0 0 0 0 0 0 0 0 0 0 0 0 127 0" result="hardAlpha"/>
<feOffset/>
<feGaussianBlur stdDeviation="45.6718"/>
<feColorMatrix type="matrix" values="0 0 0 0 0.4 0 0 0 0 0.611765 0 0 0 0 0.941176 0 0 0 1 0"/>
<feBlend mode="normal" in2="effect2_dropShadow_42_2" result="effect3_dropShadow_42_2"/>
<feColorMatrix in="SourceAlpha" type="matrix" values="0 0 0 0 0 0 0 0 0 0 0 0 0 0 0 0 0 0 127 0" result="hardAlpha"/>
<feOffset/>
<feGaussianBlur stdDeviation="91.3436"/>
<feColorMatrix type="matrix" values="0 0 0 0 0.4 0 0 0 0 0.611765 0 0 0 0 0.941176 0 0 0 1 0"/>
<feBlend mode="normal" in2="effect3_dropShadow_42_2" result="effect4_dropShadow_42_2"/>
<feColorMatrix in="SourceAlpha" type="matrix" values="0 0 0 0 0 0 0 0 0 0 0 0 0 0 0 0 0 0 127 0" result="hardAlpha"/>
<feOffset/>
<feGaussianBlur stdDeviation="156.589"/>
<feColorMatrix type="matrix" values="0 0 0 0 0.4 0 0 0 0 0.611765 0 0 0 0 0.941176 0 0 0 1 0"/>
<feBlend mode="normal" in2="effect4_dropShadow_42_2" result="effect5_dropShadow_42_2"/>
<feColorMatrix in="SourceAlpha" type="matrix" values="0 0 0 0 0 0 0 0 0 0 0 0 0 0 0 0 0 0 127 0" result="hardAlpha"/>
<feOffset/>
<feGaussianBlur stdDeviation="274.031"/>
<feColorMatrix type="matrix" values="0 0 0 0 0.4 0 0 0 0 0.611765 0 0 0 0 0.941176 0 0 0 1 0"/>
<feBlend mode="normal" in2="effect5_dropShadow_42_2" result="effect6_dropShadow_42_2"/>
<feBlend mode="normal" in="SourceGraphic" in2="effect6_dropShadow_42_2" result="shape"/>
</filter>
<filter id="filter5_dddddd_42_2" x="-124.527" y="-223.718" width="1138.16" height="1251.93" filterUnits="userSpaceOnUse" color-interpolation-filters="sRGB">
<feFlood flood-opacity="0" result="BackgroundImageFix"/>
<feColorMatrix in="SourceAlpha" type="matrix" values="0 0 0 0 0 0 0 0 0 0 0 0 0 0 0 0 0 0 127 0" result="hardAlpha"/>
<feOffset/>
<feGaussianBlur stdDeviation="6.53852"/>
<feColorMatrix type="matrix" values="0 0 0 0 0.341176 0 0 0 0 0.52549 0 0 0 0 0.823529 0 0 0 1 0"/>
<feBlend mode="normal" in2="BackgroundImageFix" result="effect1_dropShadow_42_2"/>
<feColorMatrix in="SourceAlpha" type="matrix" values="0 0 0 0 0 0 0 0 0 0 0 0 0 0 0 0 0 0 127 0" result="hardAlpha"/>
<feOffset/>
<feGaussianBlur stdDeviation="13.077"/>
<feColorMatrix type="matrix" values="0 0 0 0 0.341176 0 0 0 0 0.52549 0 0 0 0 0.823529 0 0 0 1 0"/>
<feBlend mode="normal" in2="effect1_dropShadow_42_2" result="effect2_dropShadow_42_2"/>
<feColorMatrix in="SourceAlpha" type="matrix" values="0 0 0 0 0 0 0 0 0 0 0 0 0 0 0 0 0 0 127 0" result="hardAlpha"/>
<feOffset/>
<feGaussianBlur stdDeviation="45.7696"/>
<feColorMatrix type="matrix" values="0 0 0 0 0.341176 0 0 0 0 0.52549 0 0 0 0 0.823529 0 0 0 1 0"/>
<feBlend mode="normal" in2="effect2_dropShadow_42_2" result="effect3_dropShadow_42_2"/>
<feColorMatrix in="SourceAlpha" type="matrix" values="0 0 0 0 0 0 0 0 0 0 0 0 0 0 0 0 0 0 127 0" result="hardAlpha"/>
<feOffset/>
<feGaussianBlur stdDeviation="91.5392"/>
<feColorMatrix type="matrix" values="0 0 0 0 0.341176 0 0 0 0 0.52549 0 0 0 0 0.823529 0 0 0 1 0"/>
<feBlend mode="normal" in2="effect3_dropShadow_42_2" result="effect4_dropShadow_42_2"/>
<feColorMatrix in="SourceAlpha" type="matrix" values="0 0 0 0 0 0 0 0 0 0 0 0 0 0 0 0 0 0 127 0" result="hardAlpha"/>
<feOffset/>
<feGaussianBlur stdDeviation="156.924"/>
<feColorMatrix type="matrix" values="0 0 0 0 0.341176 0 0 0 0 0.52549 0 0 0 0 0.823529 0 0 0 1 0"/>
<feBlend mode="normal" in2="effect4_dropShadow_42_2" result="effect5_dropShadow_42_2"/>
<feColorMatrix in="SourceAlpha" type="matrix" values="0 0 0 0 0 0 0 0 0 0 0 0 0 0 0 0 0 0 127 0" result="hardAlpha"/>
<feOffset/>
<feGaussianBlur stdDeviation="274.618"/>
<feColorMatrix type="matrix" values="0 0 0 0 0.341176 0 0 0 0 0.52549 0 0 0 0 0.823529 0 0 0 1 0"/>
<feBlend mode="normal" in2="effect5_dropShadow_42_2" result="effect6_dropShadow_42_2"/>
<feBlend mode="normal" in="SourceGraphic" in2="effect6_dropShadow_42_2" result="shape"/>
</filter>
<filter id="filter6_dddddd_42_2" x="27.9081" y="69.7411" width="701.376" height="753.919" filterUnits="userSpaceOnUse" color-interpolation-filters="sRGB">
<feFlood flood-opacity="0" result="BackgroundImageFix"/>
<feColorMatrix in="SourceAlpha" type="matrix" values="0 0 0 0 0 0 0 0 0 0 0 0 0 0 0 0 0 0 127 0" result="hardAlpha"/>
<feOffset/>
<feGaussianBlur stdDeviation="3.93752"/>
<feColorMatrix type="matrix" values="0 0 0 0 0.396078 0 0 0 0 0.607843 0 0 0 0 0.941176 0 0 0 1 0"/>
<feBlend mode="normal" in2="BackgroundImageFix" result="effect1_dropShadow_42_2"/>
<feColorMatrix in="SourceAlpha" type="matrix" values="0 0 0 0 0 0 0 0 0 0 0 0 0 0 0 0 0 0 127 0" result="hardAlpha"/>
<feOffset/>
<feGaussianBlur stdDeviation="7.87504"/>
<feColorMatrix type="matrix" values="0 0 0 0 0.396078 0 0 0 0 0.607843 0 0 0 0 0.941176 0 0 0 1 0"/>
<feBlend mode="normal" in2="effect1_dropShadow_42_2" result="effect2_dropShadow_42_2"/>
<feColorMatrix in="SourceAlpha" type="matrix" values="0 0 0 0 0 0 0 0 0 0 0 0 0 0 0 0 0 0 127 0" result="hardAlpha"/>
<feOffset/>
<feGaussianBlur stdDeviation="27.5626"/>
<feColorMatrix type="matrix" values="0 0 0 0 0.396078 0 0 0 0 0.607843 0 0 0 0 0.941176 0 0 0 1 0"/>
<feBlend mode="normal" in2="effect2_dropShadow_42_2" result="effect3_dropShadow_42_2"/>
<feColorMatrix in="SourceAlpha" type="matrix" values="0 0 0 0 0 0 0 0 0 0 0 0 0 0 0 0 0 0 127 0" result="hardAlpha"/>
<feOffset/>
<feGaussianBlur stdDeviation="55.1253"/>
<feColorMatrix type="matrix" values="0 0 0 0 0.396078 0 0 0 0 0.607843 0 0 0 0 0.941176 0 0 0 1 0"/>
<feBlend mode="normal" in2="effect3_dropShadow_42_2" result="effect4_dropShadow_42_2"/>
<feColorMatrix in="SourceAlpha" type="matrix" values="0 0 0 0 0 0 0 0 0 0 0 0 0 0 0 0 0 0 127 0" result="hardAlpha"/>
<feOffset/>
<feGaussianBlur stdDeviation="94.5005"/>
<feColorMatrix type="matrix" values="0 0 0 0 0.396078 0 0 0 0 0.607843 0 0 0 0 0.941176 0 0 0 1 0"/>
<feBlend mode="normal" in2="effect4_dropShadow_42_2" result="effect5_dropShadow_42_2"/>
<feColorMatrix in="SourceAlpha" type="matrix" values="0 0 0 0 0 0 0 0 0 0 0 0 0 0 0 0 0 0 127 0" result="hardAlpha"/>
<feOffset/>
<feGaussianBlur stdDeviation="165.376"/>
<feColorMatrix type="matrix" values="0 0 0 0 0.396078 0 0 0 0 0.607843 0 0 0 0 0.941176 0 0 0 1 0"/>
<feBlend mode="normal" in2="effect5_dropShadow_42_2" result="effect6_dropShadow_42_2"/>
<feBlend mode="normal" in="SourceGraphic" in2="effect6_dropShadow_42_2" result="shape"/>
</filter>
<clipPath id="clip0_42_2">
<rect width="753" height="745" fill="white"/>
</clipPath>
</defs>
</svg>
