<svg width="1802" height="1524" viewBox="0 0 1802 1524" fill="none" xmlns="http://www.w3.org/2000/svg">
<circle cx="557" cy="480" r="199.5" fill="#FAD7D7" stroke="black" stroke-width="15"/>
<circle cx="807" cy="958" r="199.5" fill="#F8FAD7" stroke="black" stroke-width="15"/>
<circle cx="1221" cy="526" r="199.5" fill="#DED7FA" stroke="black" stroke-width="15"/>
<circle cx="445.5" cy="1245.5" r="77.5" fill="#E9FDEE" stroke="black" stroke-width="6"/>
<circle cx="813.5" cy="1443.5" r="77.5" fill="#E9FDEE" stroke="black" stroke-width="6"/>
<circle cx="1237.5" cy="115.5" r="77.5" fill="#E9FDEE" stroke="black" stroke-width="6"/>
<circle cx="1721.5" cy="445.5" r="77.5" fill="#E9FDEE" stroke="black" stroke-width="6"/>
<circle cx="525.5" cy="80.5" r="77.5" fill="#E9FDEE" stroke="black" stroke-width="6"/>
<circle cx="80.5" cy="606.5" r="77.5" fill="#E9FDEE" stroke="black" stroke-width="6"/>
<line x1="644.436" y1="653.461" x2="708.436" y2="790.461" stroke="black" stroke-width="12"/>
<line x1="760.663" y1="462.037" x2="1030.66" y2="492.037" stroke="black" stroke-width="12"/>
<line x1="957.803" y1="822.713" x2="1100.8" y2="682.713" stroke="black" stroke-width="12"/>
<line x1="539" y1="279" x2="539" y2="161" stroke="black" stroke-width="6"/>
<line x1="371.747" y1="555.905" x2="161.747" y2="609.905" stroke="black" stroke-width="6"/>
<line x1="1224.01" y1="321.739" x2="1235.01" y2="195.739" stroke="black" stroke-width="6"/>
<line x1="1421.21" y1="529.106" x2="1655.21" y2="465.106" stroke="black" stroke-width="6"/>
<line x1="815.999" y1="1150.08" x2="809.999" y2="1363.08" stroke="black" stroke-width="6"/>
<line x1="638.145" y1="1070.1" x2="507.145" y2="1204.1" stroke="black" stroke-width="6"/>
</svg>
